<svg width="47" height="46" viewBox="0 0 47 46" fill="none" xmlns="http://www.w3.org/2000/svg">
<g clip-path="url(#clip0_1156_7144)">
<path d="M23.1279 46C35.8305 46 46.1279 35.7025 46.1279 23C46.1279 10.2975 35.8305 0 23.1279 0C10.4254 0 0.12793 10.2975 0.12793 23C0.12793 35.7025 10.4254 46 23.1279 46Z" fill="black"/>
<path d="M19.0512 17.7178L14.6178 28.2968H11.7241L9.54399 19.855C9.40976 19.3344 9.29503 19.145 8.89262 18.924C8.23344 18.5676 7.14903 18.2332 6.19165 18.025L6.25867 17.7179H10.9141C11.5079 17.7179 12.0416 18.114 12.1759 18.7967L13.3287 24.9195L16.176 17.7179L19.0512 17.7178ZM30.3855 24.8412C30.3983 22.0506 26.5242 21.8988 26.5521 20.6503C26.5597 20.2693 26.9208 19.866 27.7118 19.7642C28.1046 19.712 29.1855 19.6736 30.4107 20.2361L30.891 17.9937C30.2318 17.7545 29.3845 17.5254 28.3314 17.5254C25.6266 17.5254 23.7226 18.9641 23.7065 21.0225C23.6888 22.5447 25.065 23.3942 26.1031 23.9012C27.169 24.4199 27.5254 24.7511 27.5216 25.2163C27.5146 25.9263 26.6712 26.2366 25.8844 26.2506C24.5082 26.272 23.7099 25.8787 23.0725 25.5818L22.5771 27.9012C23.2156 28.1943 24.3978 28.4489 25.6213 28.4639C28.4958 28.464 30.3763 27.0406 30.3855 24.8412ZM37.5281 28.2968H40.0598L37.8507 17.7178H35.5136C34.9884 17.7178 34.5457 18.0241 34.3485 18.4933L30.2445 28.2967H33.117L33.6873 26.7168H37.1985L37.5281 28.2968ZM34.4745 24.5486L35.9156 20.5764L36.7446 24.5486H34.4745ZM22.962 17.7178L20.6977 28.2968H17.9606L20.2253 17.7178H22.962Z" fill="white"/>
</g>
<defs>
<clipPath id="clip0_1156_7144">
<rect width="46" height="46" fill="white" transform="translate(0.127686 0.00195312)"/>
</clipPath>
</defs>
</svg>
