<svg width="55" height="46" viewBox="0 0 55 46" fill="none" xmlns="http://www.w3.org/2000/svg">
<rect x="0.662109" y="0.00195312" width="54.24" height="46" rx="23" fill="black"/>
<path d="M40.3444 22.8752C39.0246 21.8812 37.1445 21.4836 37.1445 21.4836C37.1445 21.4836 38.7355 20.5612 39.3857 19.6396C40.0365 18.7177 40.3618 17.2894 40.4162 16.5483C40.4703 15.8068 40.597 12.698 38.1745 10.9086C36.3007 9.52405 34.1533 8.97442 31.2697 8.79561V2.52148H27.4013V8.72148C26.5382 8.72148 25.5295 8.72148 24.4548 8.72148V2.52148H20.5868V8.72148C16.6379 8.72148 12.9766 8.72148 12.9766 8.72148V12.7387H15.2134C15.8233 12.7387 16.9079 12.8065 17.3687 13.3223C17.8298 13.8372 17.9111 14.1086 17.9111 15.1113C17.9111 16.1144 17.9113 30.7388 17.9113 31.1184C17.9113 31.4979 17.839 31.9677 17.5134 32.2752C17.1883 32.5827 16.863 32.6545 16.0854 32.6545C15.308 32.6545 13.7719 32.6545 13.7719 32.6545L12.9766 37.3007H20.5868V43.4832H24.455V37.3007H27.4015V43.4832H31.2699V37.1987C32.2699 37.1403 33.2023 37.0646 33.7461 36.9934C34.849 36.8491 37.3433 36.5598 39.6757 34.9328C42.0073 33.3056 42.531 30.7567 42.5855 28.19C42.6404 25.6232 41.663 23.8694 40.3444 22.8752ZM24.4548 13.0961C24.4548 13.0961 25.6839 12.9878 26.8951 13.0055C28.1066 13.0234 29.1726 13.0598 30.7638 13.5479C32.3543 14.0363 33.2936 15.2294 33.3305 16.6394C33.3665 18.0495 32.7512 18.9891 31.6671 19.5858C30.5827 20.1822 29.0831 20.5076 27.6725 20.5613C26.2628 20.6158 24.4548 20.5613 24.4548 20.5613V13.0961ZM33.1133 31.5882C32.2276 32.0765 30.4559 32.5102 28.7391 32.6364C27.0216 32.7632 24.4548 32.7089 24.4548 32.7089V24.4115C24.4548 24.4115 26.9134 24.2853 28.8296 24.4115C30.7456 24.5386 32.3543 25.0262 33.077 25.3883C33.8 25.7496 35.0658 26.5447 35.0658 28.4431C35.0658 30.3408 33.9985 31.1002 33.1133 31.5882Z" fill="white"/>
</svg>
