<svg width="62" height="46" viewBox="0 0 62 46" fill="none" xmlns="http://www.w3.org/2000/svg">
<path d="M22.4287 44.1806C34.1256 44.1806 43.6078 34.6984 43.6078 23.0014C43.6078 11.3045 34.1256 1.82227 22.4287 1.82227C10.7317 1.82227 1.24951 11.3045 1.24951 23.0014C1.24951 34.6984 10.7317 44.1806 22.4287 44.1806Z" fill="#868686"/>
<path d="M39.4865 44.1806C51.1835 44.1806 60.6657 34.6984 60.6657 23.0014C60.6657 11.3045 51.1835 1.82227 39.4865 1.82227C27.7896 1.82227 18.3074 11.3045 18.3074 23.0014C18.3074 34.6984 27.7896 44.1806 39.4865 44.1806Z" fill="black"/>
<path d="M30.9577 3.54883C23.4827 6.80716 18.2119 14.2822 18.2119 23.003C18.2119 31.7238 23.4827 39.1988 30.9577 42.4572C38.4327 39.1988 43.7036 31.7238 43.7036 23.003C43.7036 14.2822 38.4327 6.80716 30.9577 3.54883Z" fill="#5D5D5D"/>
</svg>
