<svg width="46" height="46" viewBox="0 0 46 46" fill="none" xmlns="http://www.w3.org/2000/svg">
<path d="M23.064 46C35.6653 46 45.8806 35.7025 45.8806 23C45.8806 10.2975 35.6653 0 23.064 0C10.4629 0 0.247559 10.2975 0.247559 23C0.247559 35.7025 10.4629 46 23.064 46Z" fill="black"/>
<path d="M29.4878 7.74805H16.6426L17.6002 15.6383H28.5184L29.4878 7.74805Z" fill="white"/>
<path d="M28.3097 17.3457H17.812L18.2511 20.8842C18.4548 21.0052 18.5893 21.1188 18.8022 21.2246C20.1223 21.8812 21.5757 22.224 23.0496 22.2263C24.5234 22.2286 25.978 21.8904 27.3001 21.238C27.5195 21.1297 27.6567 21.0132 27.8666 20.8889L28.3097 17.3457Z" fill="white"/>
<path d="M30.6805 20.2388C29.7844 21.4107 28.6303 22.3597 27.3083 23.0121C25.9861 23.6645 24.5316 24.0027 23.0578 24.0004C21.5839 23.9981 20.1304 23.6553 18.8104 22.9987C17.4903 22.3421 16.3393 21.3895 15.4467 20.2148L13.9061 21.389C14.9791 22.801 16.3626 23.9461 17.9493 24.7353C19.536 25.5245 21.2831 25.9365 23.0547 25.9393C24.8263 25.9421 26.5747 25.5356 28.1639 24.7514C29.753 23.9672 31.1403 22.8264 32.2175 21.4178L30.6805 20.2388Z" fill="white"/>
<path fill-rule="evenodd" clip-rule="evenodd" d="M22.2155 30.1678C21.97 31.5218 20.787 32.5485 19.3646 32.5485C17.7643 32.5485 16.4669 31.249 16.4669 29.6463C16.4669 28.0434 17.7643 26.7441 19.3646 26.7441C20.6701 26.7441 21.7739 27.6089 22.1363 28.7976C22.2519 28.7343 22.3731 28.6827 22.498 28.6432C22.692 28.5818 22.8951 28.5497 23.1007 28.5487C23.3061 28.5478 23.5095 28.5782 23.7041 28.6378C23.8343 28.6778 23.9604 28.7308 24.0806 28.7963C24.4434 27.6082 25.547 26.7441 26.852 26.7441C28.4523 26.7441 29.7497 28.0434 29.7497 29.6463C29.7497 31.249 28.4523 32.5485 26.852 32.5485C25.4261 32.5485 24.2408 31.5168 23.9994 30.1582C23.9194 29.99 23.7936 29.8479 23.6364 29.7486C23.4776 29.6478 23.2932 29.5948 23.1053 29.5957C22.9173 29.5965 22.7336 29.651 22.5756 29.7533C22.4187 29.8544 22.2938 29.9985 22.2155 30.1678ZM19.3646 31.0404C20.1333 31.0404 20.7565 30.416 20.7565 29.6463C20.7565 28.8763 20.1333 28.2522 19.3646 28.2522C18.5958 28.2522 17.9727 28.8763 17.9727 29.6463C17.9727 30.416 18.5958 31.0404 19.3646 31.0404ZM26.852 31.0404C27.6207 31.0404 28.2439 30.416 28.2439 29.6463C28.2439 28.8763 27.6207 28.2522 26.852 28.2522C26.0833 28.2522 25.4601 28.8763 25.4601 29.6463C25.4601 30.416 26.0833 31.0404 26.852 31.0404Z" fill="white"/>
<path d="M19.6711 37.182C20.8309 37.182 22.6136 36.4214 23.1546 35.6347C23.6955 36.4214 25.4782 37.182 26.638 37.182C27.8268 37.182 28.5943 36.9397 29.4023 36.3109C29.9214 35.9077 30.5478 34.983 30.5478 34.0786C30.4272 34.1624 30.3167 34.2424 30.212 34.3183C29.6313 34.7396 29.238 35.0252 28.3139 35.0252C27.0748 35.0252 26.2841 34.291 25.6253 33.6795C25.1551 33.243 24.7523 32.8691 24.3017 32.8691C23.8789 32.8691 23.6277 33.1299 23.3944 33.3722C23.3144 33.4554 23.2365 33.5363 23.1546 33.6037C23.0726 33.5363 22.9947 33.4554 22.9147 33.3722C22.6814 33.1299 22.4302 32.8691 22.0074 32.8691C21.5569 32.8691 21.154 33.243 20.6838 33.6795C20.0251 34.291 19.2343 35.0252 17.9952 35.0252C17.0711 35.0252 16.6777 34.7396 16.097 34.3183C15.9926 34.2427 15.8821 34.1624 15.7614 34.0786C15.7614 34.983 16.3878 35.9077 16.9067 36.3109C17.7148 36.9397 18.4823 37.182 19.6711 37.182Z" fill="white"/>
</svg>
