<svg width="25" height="19" viewBox="0 0 25 19" fill="none" xmlns="http://www.w3.org/2000/svg">
<path fill-rule="evenodd" clip-rule="evenodd" d="M14.5161 0.550657C14.709 0.357833 14.9705 0.249512 15.2433 0.249512C15.516 0.249512 15.7776 0.357833 15.9704 0.550657L24.1989 8.77907C24.3917 8.97195 24.5 9.23352 24.5 9.50626C24.5 9.77899 24.3917 10.0406 24.1989 10.2334L15.9704 18.4619C15.7765 18.6492 15.5166 18.7529 15.247 18.7505C14.9773 18.7482 14.7193 18.64 14.5286 18.4493C14.3379 18.2586 14.2297 18.0007 14.2274 17.731C14.225 17.4613 14.3287 17.2015 14.5161 17.0075L20.9887 10.5348L1.52855 10.5348C1.25576 10.5348 0.994146 10.4264 0.801255 10.2336C0.608364 10.0407 0.5 9.77904 0.5 9.50626C0.5 9.23347 0.608364 8.97185 0.801255 8.77896C0.994146 8.58607 1.25576 8.4777 1.52855 8.4777L20.9887 8.4777L14.5161 2.00503C14.3232 1.81215 14.2149 1.55058 14.2149 1.27784C14.2149 1.00511 14.3232 0.743539 14.5161 0.550657Z" fill="black"/>
</svg>
