<svg width="25" height="20" viewBox="0 0 25 20" fill="none" xmlns="http://www.w3.org/2000/svg">
<path fill-rule="evenodd" clip-rule="evenodd" d="M10.4253 18.9489C10.2325 19.1417 9.97089 19.25 9.69815 19.25C9.42542 19.25 9.16385 19.1417 8.97096 18.9489L0.742552 10.7204C0.549728 10.5276 0.441406 10.266 0.441406 9.99326C0.441406 9.72052 0.549728 9.45895 0.742552 9.26607L8.97096 1.03766C9.16495 0.8503 9.42477 0.746628 9.69445 0.74897C9.96413 0.751314 10.2221 0.859484 10.4128 1.05019C10.6035 1.24089 10.7117 1.49886 10.714 1.76855C10.7164 2.03823 10.6127 2.29804 10.4253 2.49203L3.95266 8.96471L23.4129 8.96471C23.6856 8.96471 23.9473 9.07307 24.1402 9.26596C24.333 9.45885 24.4414 9.72047 24.4414 9.99326C24.4414 10.266 24.333 10.5277 24.1402 10.7206C23.9473 10.9134 23.6856 11.0218 23.4129 11.0218L3.95266 11.0218L10.4253 17.4945C10.6182 17.6874 10.7265 17.9489 10.7265 18.2217C10.7265 18.4944 10.6182 18.756 10.4253 18.9489Z" fill="black"/>
</svg>
