<svg width="26" height="25" viewBox="0 0 26 25" fill="none" xmlns="http://www.w3.org/2000/svg">
<g clip-path="url(#clip0_236_2274)">
<path d="M24.7708 14.676C24.9023 13.9544 24.9688 13.2389 24.9688 12.5479C24.9688 10.9924 24.6625 9.48307 24.0582 8.06199C23.456 6.64607 22.6287 5.40597 21.599 4.37608C20.5699 3.34678 19.3296 2.51928 17.9129 1.9169C16.492 1.31262 14.9826 1.00627 13.4268 1.00627C12.7369 1.00627 12.0214 1.07297 11.2987 1.20445C10.1747 0.421102 8.90808 0.0241699 7.53191 0.0241699C5.71046 0.0241699 4.13344 0.677569 2.84461 1.96621C1.55577 3.25466 0.902183 4.83169 0.902183 6.65333C0.902183 8.03065 1.29911 9.29731 2.08247 10.4201C1.95098 11.1419 1.88448 11.857 1.88448 12.5481C1.88448 14.1039 2.19082 15.6134 2.79511 17.0343C3.39729 18.4502 4.2246 19.6903 5.25429 20.7204C6.2834 21.7497 7.5237 22.577 8.94038 23.1796C10.3613 23.7839 11.8706 24.0902 13.4265 24.0902C14.1162 24.0902 14.8317 24.0235 15.5544 23.892C16.6783 24.6752 17.945 25.0723 19.3216 25.0723C21.1428 25.0723 22.7198 24.4189 24.0089 23.1303C25.2975 21.8415 25.9511 20.2644 25.9511 18.4432C25.9511 17.0666 25.5542 15.7998 24.7708 14.676ZM16.9784 18.9653C16.071 19.7374 14.8814 20.1287 13.4425 20.1287C12.1946 20.1287 11.0988 19.8633 10.1858 19.3397C9.14066 18.7403 8.61053 18.0187 8.61053 17.1949C8.61053 16.7626 8.76399 16.3375 9.06651 15.9314C9.50491 15.3424 10.0098 15.2188 10.3561 15.2188C10.6724 15.2188 10.9973 15.343 11.322 15.5884C11.5387 15.7522 11.7527 15.9362 11.9584 16.1355C12.04 16.215 12.2039 16.3379 12.5263 16.4763C12.779 16.585 13.0555 16.6378 13.3716 16.6378C13.7911 16.6378 14.1192 16.5525 14.3747 16.3769C14.5043 16.2879 14.6239 16.1598 14.6239 15.829C14.6239 15.6322 14.5716 15.4699 14.4586 15.3182C14.3149 15.1253 14.1257 14.9663 13.8809 14.8331C13.5662 14.6621 13.2141 14.4933 12.835 14.3315C12.4203 14.1547 11.9941 13.9525 11.5685 13.7306C11.1219 13.4975 10.707 13.2307 10.3357 12.9373C9.90911 12.6008 9.56358 12.1532 9.30903 11.607C9.05753 11.0681 8.92987 10.4535 8.92987 9.78005C8.92987 9.0267 9.08639 8.34578 9.39503 7.75602C9.70825 7.1569 10.1381 6.68104 10.6724 6.3424C11.1607 6.03261 11.6904 5.80213 12.2466 5.65746C12.7904 5.51643 13.3718 5.44495 13.9747 5.44495C14.3101 5.44495 14.6687 5.46827 15.0406 5.51413C15.4121 5.56038 15.809 5.63644 16.221 5.74041C16.7137 5.8652 17.1294 6.06988 17.4571 6.34851C17.8644 6.69556 18.0794 7.14085 18.0794 7.63658C18.0794 8.03122 17.9618 8.4314 17.7296 8.82604C17.4317 9.33171 16.9677 9.60996 16.4226 9.60996C16.2113 9.60996 15.96 9.5448 15.2382 9.20156C14.8665 9.02536 14.4412 8.93573 13.9747 8.93573C13.4987 8.93573 13.1314 9.01619 12.9126 9.16812C12.761 9.27342 12.7046 9.38159 12.7046 9.56735C12.7046 9.65946 12.726 9.77298 12.8858 9.91612C13.1008 10.1088 13.3789 10.2706 13.7123 10.3975C14.1508 10.5642 14.6318 10.7765 15.1422 11.0286C15.6613 11.285 16.1497 11.5675 16.5943 11.8681C17.1135 12.2192 17.5487 12.7233 17.8881 13.3666C18.2269 14.0093 18.3987 14.7601 18.3987 15.5983C18.3987 17.0307 17.9207 18.1636 16.9784 18.9653Z" fill="#757575"/>
</g>
<defs>
<clipPath id="clip0_236_2274">
<rect width="25.0489" height="25" fill="white" transform="translate(0.951122 0.00012207)"/>
</clipPath>
</defs>
</svg>
