<svg width="41" height="41" viewBox="0 0 41 41" fill="none" xmlns="http://www.w3.org/2000/svg">
<g opacity="0.6">
<path fill-rule="evenodd" clip-rule="evenodd" d="M37.3416 17.5521H34.3739C33.2082 14.6433 31.2403 12.1532 28.6635 10.3337C26.9722 9.13945 25.0952 8.29297 23.1148 7.81922V5.65203H27.3002C27.6022 5.65203 27.847 5.40719 27.847 5.10516V1.75C27.847 1.44797 27.6022 1.20312 27.3002 1.20312H22.5679C22.2659 1.20312 22.021 1.44797 22.021 1.75V7.59742C21.1364 7.44961 20.2349 7.37398 19.323 7.37398C16.8676 7.37398 14.5385 7.92367 12.4509 8.90492V6.98945H16.6363C16.9383 6.98945 17.1831 6.74461 17.1831 6.44258V3.08742C17.1831 2.78539 16.9383 2.54055 16.6363 2.54055H11.904C11.602 2.54055 11.3571 2.78539 11.3571 3.08742V9.47062C6.43845 12.2574 3.11157 17.5398 3.11157 23.5855C3.11157 32.5245 10.384 39.7969 19.323 39.7969C28.262 39.7969 35.5345 32.5245 35.5345 23.5855C35.5345 23.057 35.5083 22.5265 35.4574 22.0011H37.3416C37.6436 22.0011 37.8884 21.7562 37.8884 21.4542V18.099C37.8884 17.797 37.6436 17.5521 37.3416 17.5521ZM23.1148 2.29688H26.7533V4.55836H23.1148V2.29688ZM12.4509 3.6343H16.0894V5.8957H12.4509V3.6343ZM11.3571 10.7424V11.1187C11.0854 11.2975 10.9052 11.6048 10.9052 11.9532C10.9052 12.5034 11.3539 12.9521 11.9041 12.9521C12.4542 12.9521 12.9029 12.5034 12.9029 11.9532C12.9029 11.6048 12.7226 11.2975 12.4509 11.1186V10.1219C14.5138 9.06461 16.85 8.46766 19.323 8.46766C20.2377 8.46766 21.14 8.55211 22.021 8.71367V9.78125C21.7493 9.96008 21.5691 10.2673 21.5691 10.6158C21.5691 11.1659 22.0178 11.6146 22.568 11.6146C23.1181 11.6146 23.5668 11.1659 23.5668 10.6158C23.5668 10.2673 23.3865 9.96008 23.1148 9.78125V8.95664C23.357 9.02 23.5972 9.08914 23.8352 9.16422C24.3848 11.0225 24.4743 12.4052 24.0991 13.2749C23.6928 14.2164 22.7746 14.4524 21.8867 14.6807C21.6938 14.7303 21.5116 14.7771 21.3371 14.831C20.9079 14.9637 20.3879 15.1819 20.175 15.6945C19.9408 16.2584 20.2026 16.8737 20.4199 17.2874C20.7498 17.9154 21.6118 18.5232 22.5245 19.1666C22.9875 19.4931 23.4663 19.8307 23.8247 20.1413C24.0891 20.3705 24.1566 20.5534 24.1341 20.6405C24.1032 20.7608 23.8802 20.9304 23.4641 21.0189C23.3499 21.0432 22.95 21.0627 22.5632 21.0816C21.5381 21.1316 19.9889 21.2071 18.8261 21.5291C17.7703 21.8215 17.1855 22.2752 17.038 22.9159C16.8801 23.602 17.2731 24.3498 18.2394 25.2016C18.9041 25.7877 20.1184 27.0661 20.4524 28.1398C20.6628 28.8162 20.4939 29.2419 19.8877 29.5634C19.2797 29.8856 18.7248 29.9698 18.1913 29.8209C17.4231 29.6063 16.8463 28.9377 16.5016 28.5382C16.1529 28.1341 15.7414 27.3367 15.3057 26.4924C14.4387 24.8125 13.456 22.9084 12.1465 22.3979C12.0356 22.3546 11.9165 22.3234 11.7787 22.2873C10.9509 22.0705 9.41024 21.6667 9.21563 17.6887C9.17978 16.9561 8.23876 15.0393 7.53853 14.1279C8.60931 12.796 9.90079 11.649 11.3571 10.7424ZM13.2713 36.8005C13.3795 36.8554 13.4731 36.9028 13.5421 36.9684C13.6658 37.0856 13.7334 37.3102 13.7449 37.6364C11.9605 36.9255 10.3426 35.8839 8.96657 34.588C9.04556 34.5671 9.12696 34.5452 9.21228 34.5223C9.59509 34.4194 10.029 34.3026 10.4532 34.2262C11.3113 34.0718 11.8791 34.1275 12.1889 34.3966C12.4576 34.63 12.5797 35.0802 12.5517 35.7345C12.5224 36.4203 13.0096 36.6676 13.2713 36.8005ZM14.8321 38.0222C14.8825 37.1574 14.7117 36.5698 14.2946 36.1745C14.11 35.9995 13.9114 35.8987 13.7664 35.8251C13.7277 35.8055 13.6795 35.7809 13.6454 35.7612C13.6842 34.7673 13.4356 34.0304 12.9063 33.5706C12.1393 32.9045 11.0285 33.0113 10.2597 33.1496C9.78978 33.2341 9.33204 33.3573 8.92821 33.466C8.64329 33.5427 8.27313 33.6425 8.07134 33.6705C5.66907 30.993 4.2054 27.4571 4.2054 23.5853C4.2054 20.417 5.18587 17.4737 6.85821 15.0415C7.36071 15.8072 8.10063 17.2823 8.12306 17.742C8.35688 22.5212 10.5604 23.0987 11.5013 23.3453C11.602 23.3716 11.697 23.3966 11.7491 23.417C12.6735 23.7773 13.594 25.5609 14.3336 26.9941C14.8201 27.9366 15.2402 28.7506 15.6733 29.2527C16.0708 29.7134 16.8106 30.5709 17.8969 30.8743C18.163 30.9487 18.4331 30.9857 18.7063 30.9857C19.2601 30.9857 19.827 30.8334 20.3998 30.5297C21.4744 29.9599 21.8639 28.9959 21.4966 27.815C21.0072 26.2417 19.2999 24.6786 18.9625 24.3812C18.0608 23.5862 18.0889 23.2255 18.1037 23.1612C18.139 23.0077 18.424 22.7753 19.1178 22.5832C20.1635 22.2937 21.6396 22.2216 22.6164 22.174C23.1912 22.1459 23.5001 22.1295 23.6917 22.0887C24.4976 21.9172 25.0449 21.4889 25.1932 20.9135C25.2745 20.598 25.2979 19.9709 24.5409 19.3148C24.1412 18.9684 23.6396 18.6148 23.1546 18.2727C22.4238 17.7574 21.5954 17.1734 21.3881 16.7787C21.1235 16.2751 21.1824 16.1202 21.185 16.1139C21.1952 16.0895 21.2595 15.9998 21.6602 15.8759C21.8093 15.8298 21.9792 15.7862 22.1588 15.74C23.1403 15.4877 24.4845 15.1422 25.1033 13.7083C25.5285 12.7227 25.5249 11.3788 25.0927 9.62328C28.6559 11.1043 31.6044 13.9204 33.1882 17.5522H32.6093C32.3073 17.5522 32.0624 17.797 32.0624 18.0991V20.6527C31.4728 20.8039 31.0178 21.0404 30.6802 21.3705C29.9399 22.0944 29.9222 23.097 29.9052 24.0668L29.9022 24.2273C29.8743 25.6401 29.7297 26.7968 28.1788 27.7529C26.9258 28.5253 27.2963 29.7748 27.4545 30.3083C27.5202 30.5298 27.5973 30.7527 27.6789 30.9887C28.0256 31.9909 28.3841 33.0273 27.9559 34.1326C27.7593 34.6398 27.6009 35.2282 28.0571 35.9184C25.5889 37.6713 22.5742 38.7031 19.323 38.7031C17.7599 38.7031 16.2514 38.4647 14.8321 38.0222ZM34.4407 23.5855C34.4407 28.2775 32.292 32.477 28.927 35.252C28.7989 35.0233 28.8521 34.8465 28.9757 34.5276C29.5487 33.0485 29.085 31.7081 28.7124 30.6311C28.6349 30.407 28.5617 30.1954 28.503 29.9973C28.2542 29.1584 28.379 28.9141 28.7527 28.6838C30.9346 27.3387 30.9713 25.4792 30.9956 24.2488L30.9985 24.086C31.0152 23.1414 31.0456 22.5427 31.4446 22.1525C31.5945 22.0059 31.7999 21.8878 32.0623 21.7946V26.1303C31.7906 26.3091 31.6103 26.6164 31.6103 26.9648C31.6103 27.515 32.0591 27.9637 32.6092 27.9637C33.1594 27.9637 33.6081 27.5149 33.6081 26.9648C33.6081 26.6164 33.4277 26.3091 33.156 26.1303V22.0011H34.358C34.4126 22.5258 34.4407 23.0567 34.4407 23.5855ZM36.7947 20.9073H33.1562V18.6459H36.7947V20.9073ZM14.1077 21.8641C14.6579 21.8641 15.1066 21.4154 15.1066 20.8653C15.1066 20.5169 14.9263 20.2096 14.6545 20.0308V15.9016H18.8399C19.142 15.9016 19.3868 15.6567 19.3868 15.3547V11.9995C19.3868 11.6974 19.142 11.4526 18.8399 11.4526H14.1077C13.8056 11.4526 13.5608 11.6974 13.5608 11.9995V20.0307C13.2891 20.2095 13.1088 20.5168 13.1088 20.8652C13.1089 21.4154 13.5576 21.8641 14.1077 21.8641ZM14.6546 12.5463H18.2931V14.8078H14.6546V12.5463Z" fill="black"/>
</g>
</svg>
