<svg width="41" height="41" viewBox="0 0 41 41" fill="none" xmlns="http://www.w3.org/2000/svg">
<g opacity="0.6">
<path fill-rule="evenodd" clip-rule="evenodd" d="M32.1137 10.9687C31.9194 10.7362 31.9503 10.3896 32.1828 10.1953C32.4154 10.001 32.7619 10.0319 32.9562 10.2644C35.2325 12.9875 36.6031 16.4931 36.6031 20.3163C36.6031 28.9744 29.574 36.0036 20.916 36.0036C12.258 36.0036 5.22878 28.9744 5.22878 20.3163C5.22878 17.0005 6.25992 13.9235 8.01851 11.3887C8.19121 11.1398 8.53356 11.0779 8.78258 11.2506C9.03152 11.4233 9.09341 11.7657 8.9207 12.0147C7.28541 14.3717 6.32682 17.233 6.32682 20.3163C6.32682 28.3683 12.864 34.9055 20.916 34.9055C28.968 34.9055 35.5051 28.3683 35.5051 20.3163C35.5051 16.761 34.2306 13.5009 32.1137 10.9687ZM20.5001 1.16943C25.986 1.16943 30.44 5.62332 30.44 11.1093C30.44 16.5953 25.986 21.0492 20.5001 21.0492C15.0141 21.0492 10.5602 16.5953 10.5602 11.1093C10.5602 5.62332 15.0141 1.16943 20.5001 1.16943ZM20.5001 2.26747C15.6202 2.26747 11.6582 6.22936 11.6582 11.1093C11.6582 15.9893 15.6202 19.9512 20.5001 19.9512C25.38 19.9512 29.342 15.9893 29.342 11.1093C29.342 6.22936 25.38 2.26747 20.5001 2.26747ZM21.6827 10.5661C21.7589 10.7314 21.8013 10.9154 21.8013 11.1093C21.8013 11.8275 21.2183 12.4106 20.5001 12.4106C19.7819 12.4106 19.1988 11.8275 19.1988 11.1093C19.1988 10.3911 19.7819 9.80802 20.5001 9.80802C20.6199 9.80802 20.736 9.82426 20.8463 9.85469L22.1211 8.35539C22.3174 8.12457 22.6642 8.09649 22.895 8.29281C23.1259 8.48904 23.1539 8.83587 22.9576 9.06669L21.6827 10.5661ZM27.1439 10.5603C27.447 10.5603 27.6929 10.8063 27.6929 11.1093C27.6929 11.4123 27.447 11.6583 27.1439 11.6583H25.8298C25.5268 11.6583 25.2808 11.4123 25.2808 11.1093C25.2808 10.8063 25.5268 10.5603 25.8298 10.5603H27.1439ZM21.0491 17.7532C21.0491 18.0562 20.8031 18.3022 20.5001 18.3022C20.1971 18.3022 19.9511 18.0562 19.9511 17.7532V16.4391C19.9511 16.136 20.1971 15.8901 20.5001 15.8901C20.8031 15.8901 21.0491 16.136 21.0491 16.4391V17.7532ZM13.8562 11.6583C13.5532 11.6583 13.3072 11.4123 13.3072 11.1093C13.3072 10.8063 13.5532 10.5603 13.8562 10.5603H15.1703C15.4733 10.5603 15.7194 10.8063 15.7194 11.1093C15.7194 11.4123 15.4733 11.6583 15.1703 11.6583H13.8562ZM19.9511 4.46543C19.9511 4.16245 20.1971 3.91641 20.5001 3.91641C20.8031 3.91641 21.0491 4.16245 21.0491 4.46543V5.77955C21.0491 6.08261 20.8031 6.32857 20.5001 6.32857C20.1971 6.32857 19.9511 6.08261 19.9511 5.77955V4.46543ZM3.59709 27.1856C6.42494 33.9638 13.1179 38.7329 20.916 38.7329C29.2936 38.7329 36.3958 33.2286 38.8002 25.6422C38.8918 25.3534 39.2006 25.1932 39.4895 25.2847C39.7783 25.3763 39.9385 25.6851 39.847 25.974C37.3019 34.0043 29.784 39.8309 20.916 39.8309C12.6704 39.8309 5.59215 34.7937 2.59317 27.6312L2.20721 29.0875C2.12964 29.3804 1.82878 29.5552 1.53592 29.4775C1.24298 29.3999 1.06823 29.0991 1.14588 28.8062L1.97772 25.6674C2.02298 25.4966 2.14776 25.3579 2.31302 25.295C2.47819 25.2321 2.6636 25.2526 2.81105 25.3501L5.52007 27.1403C5.77286 27.3074 5.84251 27.6483 5.67545 27.901C5.50839 28.1538 5.16752 28.2235 4.91466 28.0564L3.59709 27.1856Z" fill="black"/>
</g>
</svg>
