<svg width="41" height="41" viewBox="0 0 41 41" fill="none" xmlns="http://www.w3.org/2000/svg">
<g opacity="0.6">
<path fill-rule="evenodd" clip-rule="evenodd" d="M13.9543 30.793H4.16313C2.4854 30.793 1.12744 29.4347 1.12744 27.7594V7.88266C1.12744 6.20509 2.48548 4.84705 4.16313 4.84705H21.3858V4.81058C21.3858 3.70642 22.2892 2.80438 23.392 2.80438H24.3371V1.67646C24.3371 1.37325 24.5829 1.12744 24.8861 1.12744H26.7592C27.0624 1.12744 27.3082 1.37325 27.3082 1.67646V2.80438H29.1431V1.67646C29.1431 1.37325 29.3889 1.12744 29.6921 1.12744H31.5662C31.8694 1.12744 32.1152 1.37325 32.1152 1.67646V2.80438H33.95V1.67646C33.95 1.37325 34.1958 1.12744 34.4991 1.12744H36.3721C36.6754 1.12744 36.9212 1.37325 36.9212 1.67646V2.80438H37.8663C38.9691 2.80438 39.8725 3.70642 39.8725 4.81058V17.3749C39.8725 18.4776 38.9691 19.3811 37.8663 19.3811H36.8523V27.7594C36.8523 29.4348 35.4941 30.793 33.8187 30.793H23.95C23.9919 32.6056 24.4489 34.526 25.0165 35.748H27.0848C28.219 35.748 29.1471 36.676 29.1471 37.8103C29.1471 38.9445 28.219 39.8725 27.0848 39.8725H10.8971C9.76281 39.8725 8.83481 38.9445 8.83481 37.8103C8.83481 36.676 9.76281 35.748 10.8971 35.748H12.9598C13.5129 34.5251 13.93 32.6049 13.9543 30.793ZM21.3858 5.94509H4.16313C3.0923 5.94509 2.22548 6.81191 2.22548 7.88266V24.7503H7.08705C7.03332 24.3726 7.11262 23.9749 7.33897 23.6293C7.52132 23.3501 7.74336 23.1648 8.01638 23.0598C8.21066 22.9852 8.44093 22.9521 8.71928 22.9759L8.71889 18.879H6.37027C6.06705 18.879 5.82125 18.6332 5.82125 18.33V13.2892C5.82125 12.986 6.06705 12.7401 6.37027 12.7401H14.9518C15.255 12.7401 15.5009 12.986 15.5009 13.2892V18.33C15.5009 18.6332 15.255 18.879 14.9518 18.879H11.6071L11.6057 20.0952C11.7188 20.0652 11.8368 20.0491 11.9576 20.0492C12.2947 20.0493 12.6059 20.1667 12.8524 20.3622C13.0993 20.1661 13.4113 20.0489 13.7492 20.0492C14.0867 20.0493 14.3979 20.1666 14.6442 20.362C14.8911 20.166 15.203 20.0489 15.5408 20.0492C16.3356 20.0495 16.9846 20.699 16.9852 21.4925L17.0071 24.1855V24.1915C17.0066 24.3801 16.9933 24.5667 16.9679 24.7503H35.7543V19.3811H23.392C22.2892 19.3811 21.3858 18.4776 21.3858 17.3749V5.94509ZM2.22548 25.8484V27.7594C2.22548 28.8285 3.09246 29.695 4.16313 29.695H33.8187C34.8877 29.695 35.7543 28.8284 35.7543 27.7594V25.8484H16.6595C16.0078 27.3486 14.5016 28.4292 12.6696 28.3241C10.0427 28.1738 9.91576 27.4176 7.75489 25.8484H2.22548ZM24.3371 3.90242H23.392C22.8928 3.90242 22.4838 4.31074 22.4838 4.81058V6.03403H38.7745V4.81058C38.7745 4.31074 38.3656 3.90242 37.8663 3.90242H36.9212V4.9985C36.9212 5.30172 36.6754 5.54752 36.3721 5.54752H34.4991C34.1958 5.54752 33.95 5.30172 33.95 4.9985V3.90242H32.1152V4.9985C32.1152 5.30172 31.8694 5.54752 31.5662 5.54752H29.6921C29.3889 5.54752 29.1431 5.30172 29.1431 4.9985V3.90242H27.3082V4.9985C27.3082 5.30172 27.0624 5.54752 26.7592 5.54752H24.8861C24.5829 5.54752 24.3371 5.30172 24.3371 4.9985V3.90242ZM22.4838 7.13207V17.3749C22.4838 17.8741 22.8928 18.283 23.392 18.283H37.8663C38.3656 18.283 38.7745 17.8741 38.7745 17.3749V7.13207H22.4838ZM23.8241 35.748C23.2972 34.4139 22.8911 32.5561 22.852 30.793H15.0521C15.0285 32.5566 14.6558 34.4144 14.1466 35.748H23.8241ZM27.0848 36.846H10.8971C10.3667 36.846 9.93285 37.2799 9.93285 37.8103C9.93285 38.3406 10.3667 38.7745 10.8971 38.7745H27.0848C27.615 38.7745 28.049 38.3406 28.049 37.8103C28.049 37.2799 27.615 36.846 27.0848 36.846ZM9.8167 16.7054L9.8174 23.6561C9.8174 23.8325 9.7327 23.9982 9.58964 24.1014C9.44658 24.2046 9.26274 24.2328 9.09528 24.1772C8.65819 24.0321 8.41638 23.9876 8.25811 24.23L8.25764 24.2308C8.1003 24.4707 8.16211 24.7871 8.3938 24.9554C10.3196 26.3528 10.3954 27.0942 12.7324 27.2279C14.5359 27.3314 15.9029 25.8622 15.9091 24.191L15.8872 21.4993C15.8872 21.4975 15.8872 21.4958 15.8872 21.494C15.8874 21.3034 15.7314 21.1473 15.5404 21.1473H15.5396C15.3496 21.147 15.1939 21.3021 15.1936 21.4923V21.4933V21.4949C15.1932 21.7978 14.9475 22.0431 14.6446 22.0431C14.3417 22.0431 14.096 21.7978 14.0956 21.4949V21.4933V21.4923C14.0953 21.3025 13.9393 21.1473 13.7488 21.1473H13.748C13.558 21.147 13.4023 21.3021 13.402 21.4923V21.4933V21.4949C13.4016 21.7978 13.1559 22.0431 12.853 22.0431C12.5501 22.0431 12.3044 21.7978 12.304 21.4949V21.4933V21.4923C12.3037 21.3025 12.1474 21.1473 11.9572 21.1473H11.9564C11.7616 21.147 11.6053 21.3234 11.6041 21.5181V21.5221V21.5252C11.6037 21.8278 11.3585 22.073 11.0559 22.0735C10.7532 22.074 10.5073 21.8295 10.506 21.5268C10.506 21.5259 10.5117 16.7067 10.5117 16.7067C10.5116 16.5157 10.3555 16.3591 10.1645 16.3586C9.97364 16.3588 9.8167 16.5145 9.8167 16.7054ZM11.6085 17.781H14.4028V13.8382H6.91928V17.781H8.71874L8.71866 16.7054C8.71866 15.9108 9.37027 15.2605 10.1649 15.2605H10.1656C10.9601 15.2617 11.6097 15.9125 11.6097 16.7068V16.7074L11.6085 17.781ZM27.049 13.6697C26.4416 13.1479 26.372 12.231 26.8938 11.6236C27.4156 11.0161 28.3325 10.9466 28.9399 11.4684L29.8823 12.2779L32.299 10.126C32.8971 9.59348 33.815 9.64674 34.3475 10.2448C34.8801 10.8429 34.8269 11.7608 34.2288 12.2933L30.8643 15.2891C30.3216 15.7723 29.5052 15.7796 28.954 15.3061L27.049 13.6697ZM27.7645 12.8368L29.6695 14.4732C29.8035 14.5883 30.0021 14.5866 30.1341 14.469L33.4986 11.4733C33.6441 11.3438 33.657 11.1205 33.5274 10.975C33.398 10.8295 33.1747 10.8165 33.0292 10.9461L30.2539 13.4172C30.0485 13.6001 29.7396 13.6029 29.531 13.4237L28.2245 12.3013C28.0767 12.1744 27.8536 12.1914 27.7267 12.3391C27.5998 12.4869 27.6167 12.7099 27.7645 12.8368ZM26.2102 2.22548H25.4351V4.44948H26.2102V2.22548ZM30.2411 2.22548V4.44948H31.0172V2.22548H30.2411ZM17.6228 28.3207C17.3198 28.3207 17.0738 28.0747 17.0738 27.7717C17.0738 27.4687 17.3198 27.2227 17.6228 27.2227H20.3569C20.6599 27.2227 20.906 27.4687 20.906 27.7717C20.906 28.0747 20.6599 28.3207 20.3569 28.3207H17.6228ZM35.0481 2.22548V4.44948H35.8231V2.22548H35.0481Z" fill="black"/>
</g>
</svg>
