<svg width="41" height="41" viewBox="0 0 41 41" fill="none" xmlns="http://www.w3.org/2000/svg">
<g opacity="0.6">
<path fill-rule="evenodd" clip-rule="evenodd" d="M19.4545 20.7943C18.7261 20.4158 18.2281 19.6542 18.2281 18.7772C18.2281 17.5233 19.2461 16.5053 20.5 16.5053C21.7539 16.5053 22.7718 17.5233 22.7718 18.7772C22.7718 19.6542 22.2739 20.4158 21.5455 20.7943L22.6077 28.8736C22.6283 29.0303 22.5803 29.1883 22.4761 29.3072C22.3718 29.426 22.2214 29.4942 22.0634 29.4942H18.9366C18.7786 29.4942 18.6281 29.426 18.5239 29.3072C18.4197 29.1883 18.3717 29.0303 18.3923 28.8736L19.4545 20.7943ZM20.5 21.2661L19.5626 28.3961H21.4374L20.5 21.2661ZM20.5 17.6034C19.8521 17.6034 19.3262 18.1293 19.3262 18.7772C19.3262 19.425 19.8521 19.951 20.5 19.951C21.1478 19.951 21.6738 19.425 21.6738 18.7772C21.6738 18.1293 21.1478 17.6034 20.5 17.6034ZM19.951 4.5443C19.2524 4.31372 18.7477 3.65521 18.7477 2.87976C18.7477 1.91262 19.5329 1.12744 20.5 1.12744C21.4671 1.12744 22.2523 1.91262 22.2523 2.87976C22.2523 3.65521 21.7476 4.31372 21.049 4.5443V5.60689C24.748 5.74117 28.1049 7.22611 30.6406 9.58289L34.922 5.30148C34.8023 5.06438 34.7347 4.79646 34.7347 4.51285C34.7347 3.54572 35.5199 2.76054 36.4871 2.76054C37.4543 2.76054 38.2394 3.54572 38.2394 4.51285C38.2394 5.48007 37.4543 6.26525 36.4871 6.26525C36.2035 6.26525 35.9356 6.19772 35.6985 6.07795L31.4171 10.3594C33.7739 12.8951 35.2588 16.252 35.3931 19.951H36.4557C36.6863 19.2524 37.3448 18.7477 38.1202 18.7477C39.0874 18.7477 39.8725 19.5329 39.8725 20.5C39.8725 21.4671 39.0874 22.2523 38.1202 22.2523C37.3448 22.2523 36.6863 21.7476 36.4557 21.049H34.854C34.5508 21.049 34.305 20.8032 34.305 20.5C34.305 12.8808 28.1192 6.69497 20.5 6.69497C20.1968 6.69497 19.951 6.44917 19.951 6.14595V4.5443ZM36.4871 3.85858C36.126 3.85858 35.8328 4.15176 35.8328 4.51285C35.8328 4.87403 36.126 5.16721 36.4871 5.16721C36.8482 5.16721 37.1414 4.87403 37.1414 4.51285C37.1414 4.15176 36.8482 3.85858 36.4871 3.85858ZM38.1202 19.8457C37.759 19.8457 37.4659 20.1389 37.4659 20.5C37.4659 20.8611 37.759 21.1543 38.1202 21.1543C38.4813 21.1543 38.7745 20.8611 38.7745 20.5C38.7745 20.1389 38.4813 19.8457 38.1202 19.8457ZM20.5 2.22548C20.1389 2.22548 19.8457 2.51866 19.8457 2.87976C19.8457 3.24093 20.1389 3.53411 20.5 3.53411C20.8611 3.53411 21.1543 3.24093 21.1543 2.87976C21.1543 2.51866 20.8611 2.22548 20.5 2.22548ZM4.5443 21.049C4.31372 21.7476 3.65521 22.2523 2.87976 22.2523C1.91262 22.2523 1.12744 21.4671 1.12744 20.5C1.12744 19.5329 1.91262 18.7477 2.87976 18.7477C3.65521 18.7477 4.31372 19.2524 4.5443 19.951H6.14595C6.44917 19.951 6.69497 20.1968 6.69497 20.5C6.69497 28.1192 12.8808 34.305 20.5 34.305C20.8032 34.305 21.049 34.5508 21.049 34.854V36.4557C21.7476 36.6863 22.2523 37.3448 22.2523 38.1202C22.2523 39.0874 21.4671 39.8725 20.5 39.8725C19.5329 39.8725 18.7477 39.0874 18.7477 38.1202C18.7477 37.3448 19.2524 36.6863 19.951 36.4557V35.3931C16.252 35.2588 12.8951 33.7739 10.3594 31.4171L6.07795 35.6985C6.19772 35.9356 6.26525 36.2035 6.26525 36.4871C6.26525 37.4543 5.48007 38.2394 4.51285 38.2394C3.54572 38.2394 2.76054 37.4543 2.76054 36.4871C2.76054 35.5199 3.54572 34.7347 4.51285 34.7347C4.79646 34.7347 5.06438 34.8023 5.30148 34.922L9.58289 30.6406C7.22611 28.1049 5.74117 24.748 5.60689 21.049H4.5443ZM2.87976 19.8457C2.51866 19.8457 2.22548 20.1389 2.22548 20.5C2.22548 20.8611 2.51866 21.1543 2.87976 21.1543C3.24093 21.1543 3.53411 20.8611 3.53411 20.5C3.53411 20.1389 3.24093 19.8457 2.87976 19.8457ZM20.5 37.4659C20.1389 37.4659 19.8457 37.759 19.8457 38.1202C19.8457 38.4813 20.1389 38.7745 20.5 38.7745C20.8611 38.7745 21.1543 38.4813 21.1543 38.1202C21.1543 37.759 20.8611 37.4659 20.5 37.4659ZM4.51285 35.8328C4.15176 35.8328 3.85858 36.126 3.85858 36.4871C3.85858 36.8482 4.15176 37.1414 4.51285 37.1414C4.87403 37.1414 5.16721 36.8482 5.16721 36.4871C5.16721 36.126 4.87403 35.8328 4.51285 35.8328ZM5.90313 5.41183C5.66603 5.5316 5.39811 5.59913 5.11458 5.59913C4.14736 5.59913 3.36219 4.81395 3.36219 3.84674C3.36219 2.8796 4.14736 2.09442 5.11458 2.09442C6.08172 2.09442 6.86689 2.8796 6.86689 3.84674C6.86689 4.13034 6.79936 4.39827 6.6796 4.63536L11.3045 9.2603C11.5187 9.47458 11.5187 9.82242 11.3045 10.0367C11.0903 10.251 10.7423 10.251 10.5281 10.0367L5.90313 5.41183ZM5.58281 4.3036C5.69787 4.18564 5.76885 4.02446 5.76885 3.84674C5.76885 3.48564 5.47568 3.19246 5.11458 3.19246C4.7534 3.19246 4.46023 3.48564 4.46023 3.84674C4.46023 4.20791 4.7534 4.50109 5.11458 4.50109C5.29223 4.50109 5.4534 4.43011 5.57136 4.31505C5.57325 4.31309 5.57513 4.31121 5.57709 4.30925C5.57897 4.30736 5.58085 4.30548 5.58281 4.3036ZM34.922 35.6985L30.2972 31.0736C30.0829 30.8593 30.0829 30.5114 30.2972 30.2972C30.5114 30.0829 30.8593 30.0829 31.0736 30.2972L35.6985 34.922C35.9356 34.8023 36.2035 34.7347 36.4871 34.7347C37.4543 34.7347 38.2394 35.5199 38.2394 36.4871C38.2394 37.4543 37.4543 38.2394 36.4871 38.2394C35.5199 38.2394 34.7347 37.4543 34.7347 36.4871C34.7347 36.2035 34.8023 35.9356 34.922 35.6985ZM36.0188 36.0303C35.9038 36.1482 35.8328 36.3094 35.8328 36.4871C35.8328 36.8482 36.126 37.1414 36.4871 37.1414C36.8482 37.1414 37.1414 36.8482 37.1414 36.4871C37.1414 36.126 36.8482 35.8328 36.4871 35.8328C36.3094 35.8328 36.1482 35.9038 36.0303 36.0188C36.0284 36.0208 36.0265 36.0227 36.0246 36.0246C36.0227 36.0265 36.0208 36.0284 36.0188 36.0303ZM28.2983 12.6641C28.0834 12.4503 28.0827 12.1024 28.2964 11.8876C28.5101 11.6729 28.858 11.672 29.0729 11.8857C31.2852 14.0876 32.6554 17.135 32.6554 20.5C32.6554 27.2088 27.2088 32.6554 20.5 32.6554C13.7912 32.6554 8.34462 27.2088 8.34462 20.5C8.34462 13.7912 13.7912 8.34462 20.5 8.34462C22.1467 8.34462 23.7175 8.67293 25.1503 9.26736C25.4302 9.38344 25.5631 9.70493 25.447 9.98485C25.3309 10.2647 25.0094 10.3976 24.7295 10.2816C23.4263 9.74093 21.9977 9.44266 20.5 9.44266C14.3972 9.44266 9.44266 14.3972 9.44266 20.5C9.44266 26.6027 14.3972 31.5573 20.5 31.5573C26.6027 31.5573 31.5573 26.6027 31.5573 20.5C31.5573 17.4391 30.3108 14.667 28.2983 12.6641ZM17.419 24.5369C17.6808 24.6893 17.7696 25.0257 17.6171 25.2876C17.4646 25.5494 17.1282 25.6383 16.8664 25.4857C14.7132 24.2319 13.2649 21.8983 13.2649 19.2292C13.2649 15.236 16.5068 11.994 20.5 11.994C24.4932 11.994 27.7351 15.236 27.7351 19.2292C27.7351 21.8019 26.3896 24.0629 24.3641 25.3456C24.1081 25.5078 23.7687 25.4316 23.6066 25.1756C23.4445 24.9196 23.5207 24.5801 23.7766 24.418C25.495 23.3297 26.6371 21.4118 26.6371 19.2292C26.6371 15.842 23.8871 13.0921 20.5 13.0921C17.1129 13.0921 14.3629 15.842 14.3629 19.2292C14.3629 21.4936 15.5921 23.4732 17.419 24.5369ZM23.4052 23.3071C23.1586 23.4831 22.8154 23.4258 22.6394 23.1792C22.4633 22.9325 22.5206 22.5894 22.7672 22.4133C23.7608 21.7041 24.4093 20.5418 24.4093 19.2292C24.4093 17.0715 22.6576 15.3198 20.5 15.3198C18.3423 15.3198 16.5907 17.0715 16.5907 19.2292C16.5907 20.5775 17.275 21.7672 18.3146 22.4702C18.5656 22.6399 18.6316 22.9816 18.4619 23.2325C18.2921 23.4835 17.9505 23.5496 17.6995 23.3798C16.3682 22.4796 15.4926 20.9558 15.4926 19.2292C15.4926 16.4655 17.7363 14.2218 20.5 14.2218C23.2637 14.2218 25.5074 16.4655 25.5074 19.2292C25.5074 20.9101 24.6775 22.3988 23.4052 23.3071Z" fill="black"/>
</g>
</svg>
