<svg width="41" height="41" viewBox="0 0 41 41" fill="none" xmlns="http://www.w3.org/2000/svg">
<g opacity="0.6">
<path d="M37.4811 1.20312H8.11484C6.48547 1.20312 5.15984 2.52875 5.15984 4.15805V16.1427H3.3868C2.18273 16.1428 1.20312 17.1223 1.20312 18.3264V37.6133C1.20312 38.8173 2.18273 39.7969 3.3868 39.7969H13.1325C14.3366 39.7969 15.3161 38.8173 15.3161 37.6133V35.1623H30.3188C31.4286 35.1623 32.3315 34.2595 32.3315 33.1496C32.3315 32.0398 31.4286 31.1369 30.3188 31.1369H28.3264C27.8101 30.0148 27.3423 28.1693 27.2982 26.3678H36.842C38.4713 26.3678 39.7969 25.0422 39.7969 23.4129V3.51922C39.7969 2.24219 38.758 1.20312 37.4811 1.20312ZM14.2223 37.6133C14.2223 38.2142 13.7334 38.7031 13.1325 38.7031H3.3868C2.78578 38.7031 2.29688 38.2142 2.29688 37.6133V18.3264C2.29688 17.7255 2.78578 17.2366 3.3868 17.2366H13.1325C13.7334 17.2366 14.2223 17.7255 14.2223 18.3264V37.6133ZM13.1324 16.1428H6.25359V4.15805C6.25359 3.13188 7.08852 2.29688 8.11484 2.29688H37.4812C38.1549 2.29688 38.7031 2.84523 38.7031 3.51922V20.4841H15.3161V18.3263C15.3161 17.1223 14.3365 16.1428 13.1324 16.1428ZM17.5847 26.3678C17.5572 28.1948 17.1178 30.034 16.6248 31.1369H15.3161V26.3678H17.5847ZM31.2377 33.1496C31.2377 33.6563 30.8255 34.0686 30.3187 34.0686H15.3161V32.2307H30.3188C30.8255 32.2306 31.2377 32.6429 31.2377 33.1496ZM27.1362 31.1369H17.8092C18.3241 29.7907 18.6539 27.999 18.6783 26.3678H26.2044C26.2423 27.9798 26.5959 29.7726 27.1362 31.1369ZM36.842 25.2741H15.3161V21.5778H38.7031V23.4128C38.7031 24.4391 37.8682 25.2741 36.842 25.2741ZM24.3491 23.4259C24.3491 23.728 24.1043 23.9728 23.8023 23.9728H21.1545C20.8524 23.9728 20.6076 23.728 20.6076 23.4259C20.6076 23.1239 20.8524 22.8791 21.1545 22.8791H23.8023C24.1043 22.8791 24.3491 23.1239 24.3491 23.4259ZM9.69687 36.9791C9.69687 37.2811 9.45203 37.5259 9.15 37.5259H7.36922C7.06719 37.5259 6.82234 37.2811 6.82234 36.9791C6.82234 36.677 7.06719 36.4322 7.36922 36.4322H9.15C9.45203 36.4322 9.69687 36.677 9.69687 36.9791Z" fill="black"/>
</g>
</svg>
