<svg width="41" height="41" viewBox="0 0 41 41" fill="none" xmlns="http://www.w3.org/2000/svg">
<g opacity="0.6">
<path fill-rule="evenodd" clip-rule="evenodd" d="M33.9172 16.0606C35.2421 18.3841 35.9999 21.0694 35.9999 23.926C35.9999 28.1256 34.3621 31.9553 31.692 34.8086C28.7785 37.9222 24.6361 39.8725 20.0534 39.8725C15.4708 39.8725 11.3286 37.9223 8.415 34.809C5.74481 31.9557 4.10669 28.1257 4.10669 23.926C4.10669 19.7958 5.69092 16.0233 8.283 13.1856C11.2027 9.98925 15.4011 7.97928 20.0534 7.97928C20.4388 7.97928 20.821 7.99309 21.1998 8.02023C21.4692 8.03952 21.7368 8.06556 22.0024 8.09819C22.4079 4.17521 25.5858 1.12744 29.426 1.12744C33.5396 1.12744 36.8934 4.62462 36.8934 8.9487C36.8934 10.1464 36.2573 11.8306 35.3365 13.5913C34.9083 14.4099 34.4208 15.2474 33.9172 16.0606ZM21.9675 9.20054C21.6877 9.1643 21.4056 9.13583 21.1214 9.11544C20.9491 9.10313 20.7761 9.09379 20.6024 9.08736V15.2563C21.8748 15.2354 23.1092 15.1427 24.2884 14.986C24.0171 14.5202 23.7569 14.0527 23.5156 13.5913C22.6576 11.9507 22.0468 10.3766 21.9675 9.20054ZM17.3909 9.31732C14.3949 9.86368 11.7076 11.3147 9.62363 13.3749C10.761 13.8563 12.0444 14.2591 13.4376 14.5674C14.4327 12.1394 15.8146 10.3021 17.3909 9.31732ZM8.82747 14.2256C6.68418 16.7015 5.34269 19.889 5.21477 23.3769H11.7516C11.8052 20.5174 12.276 17.855 13.048 15.6053C11.4926 15.2517 10.0705 14.7839 8.82747 14.2256ZM5.21477 24.475C5.3452 28.0303 6.73657 31.2736 8.95281 33.7692C10.1825 33.228 11.5835 32.7744 13.1121 32.4303C12.3021 30.1423 11.8067 27.4126 11.7516 24.475H5.21477ZM9.76606 34.6159C11.829 36.602 14.4618 38 17.3894 38.5343C15.8527 37.5742 14.501 35.8041 13.5127 33.4651C12.1487 33.7632 10.8887 34.152 9.76606 34.6159ZM22.7175 38.5343C25.6453 37.9999 28.2783 36.6016 30.3413 34.6153C29.2186 34.1512 27.9588 33.7626 26.5953 33.4647C25.6066 35.8038 24.2545 37.574 22.7175 38.5343ZM31.1545 33.7685C33.3704 31.273 34.7615 28.03 34.8919 24.475H28.357C28.3018 27.4125 27.8061 30.142 26.9959 32.43C28.5239 32.7739 29.9246 33.2273 31.1545 33.7685ZM34.8919 23.3769C34.8094 21.13 34.2236 19.0078 33.244 17.1202C31.5337 19.7494 29.858 21.8863 29.858 21.8863C29.7539 22.019 29.5946 22.0965 29.426 22.0965C29.2574 22.0965 29.0981 22.019 28.9941 21.8863C28.9941 21.8863 28.6846 21.4918 28.196 20.8331C28.2859 21.6587 28.3406 22.5088 28.357 23.3769H34.8919ZM26.7926 18.8793C26.193 18.0169 25.5344 17.0312 24.9025 16.0083C23.5367 16.2113 22.0948 16.3308 20.6024 16.3544V23.3769H27.2587C27.228 21.802 27.066 20.2897 26.7926 18.8793ZM19.5043 15.2563V9.64925C18.5593 9.79662 17.6708 10.3196 16.8679 11.1228C15.964 12.0272 15.173 13.2812 14.5355 14.7866C16.0911 15.0644 17.7621 15.2278 19.5043 15.2563ZM14.1327 15.8292C13.3683 18.0034 12.9039 20.5923 12.8497 23.3769H19.5043V16.3544C17.6156 16.3245 15.8076 16.141 14.1327 15.8292ZM12.8497 24.475C12.9055 27.3393 13.3952 29.9965 14.199 32.2083C15.8556 31.9033 17.6406 31.7234 19.5043 31.6938V24.475H12.8497ZM14.6143 33.2481C15.2497 34.6994 16.0299 35.9068 16.9174 36.7781C17.7073 37.5535 18.5788 38.0583 19.5043 38.2026V32.792C17.791 32.82 16.1469 32.9786 14.6143 33.2481ZM20.6024 38.2026C21.528 38.0582 22.3997 37.5534 23.1897 36.778C24.0774 35.9067 24.8579 34.6993 25.4936 33.2479C23.9605 32.9783 22.316 32.8199 20.6024 32.792V38.2026ZM25.909 32.2081C26.713 29.9964 27.203 27.3392 27.2587 24.475H20.6024V31.6938C22.4664 31.7234 24.2518 31.9031 25.909 32.2081ZM29.426 20.6447C30.397 19.3594 32.7903 16.0905 34.3635 13.0824C35.1861 11.5094 35.7953 10.0187 35.7953 8.9487C35.7953 5.2454 32.949 2.22548 29.426 2.22548C25.9029 2.22548 23.0567 5.2454 23.0567 8.9487C23.0567 10.0187 23.6659 11.5094 24.4886 13.0824C26.0618 16.0905 28.4549 19.3594 29.426 20.6447ZM29.426 3.62627C32.2901 3.62627 34.6155 5.9516 34.6155 8.81568C34.6155 11.6798 32.2901 14.0052 29.426 14.0052C26.5619 14.0052 24.2366 11.6798 24.2366 8.81568C24.2366 5.9516 26.5619 3.62627 29.426 3.62627ZM29.426 4.7243C27.1679 4.7243 25.3346 6.55756 25.3346 8.81568C25.3346 11.0738 27.1679 12.9071 29.426 12.9071C31.6841 12.9071 33.5174 11.0738 33.5174 8.81568C33.5174 6.55756 31.6841 4.7243 29.426 4.7243ZM28.3715 9.80203C28.38 9.75717 28.3943 9.71262 28.4147 9.66948L29.4447 7.49238C29.5743 7.2185 29.9019 7.10132 30.1758 7.23089C30.3407 7.30885 30.4487 7.4585 30.4804 7.62501C30.496 7.54179 30.5312 7.46093 30.5868 7.38964C30.7731 7.15066 31.1185 7.10783 31.3574 7.29419L32.7537 8.38274C32.8872 8.48674 32.9652 8.6465 32.9652 8.81568C32.9652 8.98493 32.8872 9.1447 32.7537 9.2487L31.3574 10.3372C31.1185 10.5235 30.7731 10.4808 30.5868 10.2418C30.4006 10.0028 30.4433 9.65756 30.6823 9.47121L31.5232 8.81568L30.6823 8.16015C30.5728 8.07481 30.5045 7.95599 30.4806 7.8294C30.472 7.87426 30.4578 7.91874 30.4373 7.96195L29.4072 10.139C29.2777 10.4129 28.9501 10.5301 28.6762 10.4005C28.5114 10.3226 28.4033 10.1729 28.3716 10.0064C28.3559 10.0896 28.3207 10.1704 28.2651 10.2418C28.0788 10.4808 27.7336 10.5235 27.4946 10.3372L26.0982 9.2487C25.9648 9.1447 25.8868 8.98493 25.8868 8.81568C25.8868 8.6465 25.9648 8.48674 26.0982 8.38274L27.4946 7.29419C27.7336 7.10783 28.0788 7.15066 28.2651 7.38964C28.4515 7.62862 28.4086 7.97387 28.1697 8.16015L27.3288 8.81568L28.1697 9.47121C28.2792 9.55662 28.3476 9.67536 28.3715 9.80203Z" fill="black"/>
</g>
</svg>
