<svg width="57" height="46" viewBox="0 0 57 46" fill="none" xmlns="http://www.w3.org/2000/svg">
<path d="M12.2943 0.10791C11.9003 0.194389 11.6697 0.309696 11.4103 0.569138C11.2181 0.770924 11.0547 0.991928 11.0547 1.07841C11.0547 1.15528 11.0163 1.22254 10.9586 1.22254C10.9106 1.22254 10.8625 1.28981 10.8625 1.36668C10.8625 1.44355 10.8241 1.51081 10.7665 1.51081C10.7184 1.51081 10.6704 1.57807 10.6704 1.65494C10.6704 1.73182 10.6319 1.79908 10.5743 1.79908C10.5262 1.79908 10.4782 1.87595 10.4782 1.97204C10.4782 2.06813 10.3917 2.20265 10.286 2.27952C10.1803 2.35639 10.0938 2.49092 10.0938 2.58701C10.0938 2.68309 10.0554 2.75997 9.99771 2.75997C9.94967 2.75997 9.90162 2.82723 9.90162 2.9041C9.90162 2.98097 9.86318 3.04823 9.80553 3.04823C9.75748 3.04823 9.70944 3.11549 9.70944 3.19237C9.70944 3.26924 9.671 3.3365 9.61334 3.3365C9.5653 3.3365 9.51725 3.42298 9.51725 3.52868C9.51725 3.63438 9.47882 3.72086 9.42116 3.72086C9.37311 3.72086 9.32507 3.78812 9.32507 3.86499C9.32507 3.94186 9.28663 4.00912 9.22898 4.00912C9.18093 4.00912 9.13288 4.07639 9.13288 4.15326C9.13288 4.23013 9.09445 4.29739 9.03679 4.29739C8.98874 4.29739 8.9407 4.37426 8.9407 4.47035C8.9407 4.56644 8.85421 4.70096 8.74851 4.77784C8.64281 4.85471 8.55633 4.98923 8.55633 5.08532C8.55633 5.18141 8.51789 5.25828 8.46024 5.25828C8.41219 5.25828 8.36414 5.33515 8.36414 5.43124C8.36414 5.52733 8.27766 5.66185 8.17196 5.73872C8.06626 5.81559 7.97977 5.95012 7.97977 6.04621C7.97977 6.1423 7.94134 6.21917 7.88368 6.21917C7.83564 6.21917 7.78759 6.28643 7.78759 6.3633C7.78759 6.44017 7.74915 6.50743 7.6915 6.50743C7.64345 6.50743 7.59541 6.5747 7.59541 6.65157C7.59541 6.72844 7.55697 6.7957 7.49931 6.7957C7.45127 6.7957 7.40322 6.88218 7.40322 6.98788C7.40322 7.09358 7.36478 7.18006 7.30713 7.18006C7.25908 7.18006 7.21104 7.24732 7.21104 7.32419C7.21104 7.40106 7.1726 7.46833 7.11494 7.46833C7.0669 7.46833 7.01885 7.53559 7.01885 7.61246C7.01885 7.68933 6.98041 7.75659 6.92276 7.75659C6.87471 7.75659 6.82667 7.83346 6.82667 7.92955C6.82667 8.02564 6.74018 8.16016 6.63448 8.23704C6.52878 8.31391 6.4423 8.44843 6.4423 8.54452C6.4423 8.64061 6.40386 8.71748 6.34621 8.71748C6.29816 8.71748 6.25011 8.78474 6.25011 8.86161C6.25011 8.93849 6.21168 9.00575 6.15402 9.00575C6.10597 9.00575 6.05793 9.07301 6.05793 9.14988C6.05793 9.22675 6.01949 9.29401 5.96184 9.29401C5.91379 9.29401 5.86574 9.3805 5.86574 9.48619C5.86574 9.59189 5.82731 9.67837 5.76965 9.67837C5.7216 9.67837 5.67356 9.74563 5.67356 9.82251C5.67356 9.89938 5.63512 9.96664 5.57747 9.96664C5.52942 9.96664 5.48137 10.0339 5.48137 10.1108C5.48137 10.1876 5.44294 10.2549 5.38528 10.2549C5.33724 10.2549 5.28919 10.3318 5.28919 10.4279C5.28919 10.524 5.20271 10.6585 5.097 10.7354C4.9913 10.8122 4.90482 10.9467 4.90482 11.0428C4.90482 11.1389 4.86638 11.2158 4.80873 11.2158C4.76068 11.2158 4.71264 11.2927 4.71264 11.3888C4.71264 11.4848 4.62615 11.6194 4.52045 11.6962C4.41475 11.7731 4.32827 11.9076 4.32827 12.0037C4.32827 12.0998 4.28983 12.1767 4.23217 12.1767C4.18413 12.1767 4.13608 12.2439 4.13608 12.3208C4.13608 12.3977 4.09764 12.465 4.03999 12.465C3.99194 12.465 3.9439 12.5322 3.9439 12.6091C3.9439 12.686 3.90546 12.7532 3.8478 12.7532C3.79976 12.7532 3.75171 12.8397 3.75171 12.9454C3.75171 13.0511 3.71328 13.1376 3.65562 13.1376C3.60757 13.1376 3.55953 13.2048 3.55953 13.2817C3.55953 13.3586 3.52109 13.4258 3.46344 13.4258C3.41539 13.4258 3.36734 13.4931 3.36734 13.57C3.36734 13.6468 3.32891 13.7141 3.27125 13.7141C3.2232 13.7141 3.17516 13.791 3.17516 13.8871C3.17516 13.9832 3.08868 14.1177 2.98297 14.1946C2.87727 14.2714 2.79079 14.4059 2.79079 14.502C2.79079 14.5981 2.75235 14.675 2.6947 14.675C2.64665 14.675 2.5986 14.7423 2.5986 14.8191C2.5986 14.896 2.56017 14.9633 2.50251 14.9633C2.45447 14.9633 2.40642 15.0305 2.40642 15.1074C2.40642 15.1843 2.36798 15.2515 2.31033 15.2515C2.26228 15.2515 2.21424 15.338 2.21424 15.4437C2.21424 15.5494 2.1758 15.6359 2.11814 15.6359C2.0701 15.6359 2.02205 15.7031 2.02205 15.78C2.02205 15.8569 1.98361 15.9242 1.92596 15.9242C1.87791 15.9242 1.82987 15.9914 1.82987 16.0683C1.82987 16.1452 1.79143 16.2124 1.73377 16.2124C1.68573 16.2124 1.63768 16.2893 1.63768 16.3854C1.63768 16.4815 1.5512 16.616 1.4455 16.6929C1.33979 16.7697 1.25331 16.9043 1.25331 17.0004C1.25331 17.0964 1.21487 17.1733 1.15722 17.1733C1.10917 17.1733 1.06113 17.2598 1.06113 17.3655C1.06113 17.4712 1.02269 17.5577 0.965035 17.5577C0.916989 17.5577 0.868942 17.6826 0.868942 17.8459C0.868942 17.9997 0.830506 18.1342 0.77285 18.1342C0.724804 18.1342 0.676758 18.2591 0.676758 18.4225C0.676758 18.5762 0.724804 18.7107 0.77285 18.7107C0.830506 18.7107 0.868942 18.8356 0.868942 18.9798C0.868942 19.1335 0.945816 19.3065 1.06113 19.3834C1.16683 19.4602 1.25331 19.5755 1.25331 19.6428C1.25331 19.7677 4.61654 23.15 5.1931 23.6113C5.35645 23.7458 9.42116 27.7623 14.2258 32.5475C19.0304 37.3328 23.0951 41.3493 23.2585 41.4838C23.4218 41.6183 24.45 42.5985 25.5262 43.665C26.6025 44.7412 27.5538 45.6156 27.6307 45.6156C27.7075 45.6156 27.7748 45.6541 27.7748 45.7117C27.7748 45.7598 27.9093 45.8078 28.0631 45.8078C28.2264 45.8078 28.3513 45.8463 28.3513 45.9039C28.3513 45.952 28.4378 46 28.5435 46C28.6492 46 28.7357 45.952 28.7357 45.9039C28.7357 45.8463 28.9087 45.8078 29.1201 45.8078C29.3315 45.8078 29.5045 45.7598 29.5045 45.7117C29.5045 45.6541 29.5717 45.6156 29.6486 45.6156C29.7255 45.6156 32.8389 42.5792 36.5576 38.8606C40.2764 35.1516 43.4667 32.0094 43.63 31.8749C44.2738 31.3753 56.2181 19.3737 56.2181 19.2392C56.2181 19.1624 56.2662 19.0951 56.3142 19.0951C56.3719 19.0951 56.4103 18.778 56.4103 18.3264C56.4103 17.8748 56.3719 17.5577 56.3142 17.5577C56.2662 17.5577 56.2181 17.4808 56.2181 17.3847C56.2181 17.2886 56.1316 17.1541 56.0259 17.0772C55.9202 17.0004 55.8338 16.8658 55.8338 16.7697C55.8338 16.6736 55.7953 16.5968 55.7377 16.5968C55.6896 16.5968 55.6416 16.5103 55.6416 16.4046C55.6416 16.2989 55.6031 16.2124 55.5455 16.2124C55.4974 16.2124 55.4494 16.1452 55.4494 16.0683C55.4494 15.9914 55.4109 15.9242 55.3533 15.9242C55.3052 15.9242 55.2572 15.8569 55.2572 15.78C55.2572 15.7031 55.2188 15.6359 55.1611 15.6359C55.1131 15.6359 55.065 15.5494 55.065 15.4437C55.065 15.338 55.0266 15.2515 54.9689 15.2515C54.9209 15.2515 54.8728 15.1651 54.8728 15.0594C54.8728 14.9537 54.8344 14.8672 54.7767 14.8672C54.7287 14.8672 54.6806 14.7999 54.6806 14.723C54.6806 14.6462 54.6422 14.5789 54.5846 14.5789C54.5365 14.5789 54.4885 14.5116 54.4885 14.4348C54.4885 14.3579 54.45 14.2906 54.3924 14.2906C54.3443 14.2906 54.2963 14.2042 54.2963 14.0985C54.2963 13.9928 54.2578 13.9063 54.2002 13.9063C54.1521 13.9063 54.1041 13.8198 54.1041 13.7141C54.1041 13.6084 54.0657 13.5219 54.008 13.5219C53.96 13.5219 53.9119 13.4547 53.9119 13.3778C53.9119 13.3009 53.8735 13.2337 53.8158 13.2337C53.7678 13.2337 53.7197 13.1664 53.7197 13.0895C53.7197 13.0127 53.6813 12.9454 53.6236 12.9454C53.5756 12.9454 53.5275 12.8589 53.5275 12.7532C53.5275 12.6475 53.4891 12.561 53.4314 12.561C53.3834 12.561 53.3354 12.4746 53.3354 12.3689C53.3354 12.2632 53.2969 12.1767 53.2393 12.1767C53.1912 12.1767 53.1432 12.1094 53.1432 12.0326C53.1432 11.9557 53.1047 11.8884 53.0471 11.8884C52.999 11.8884 52.951 11.8212 52.951 11.7443C52.951 11.6674 52.9125 11.6002 52.8549 11.6002C52.8068 11.6002 52.7588 11.5137 52.7588 11.408C52.7588 11.3023 52.7204 11.2158 52.6627 11.2158C52.6147 11.2158 52.5666 11.1293 52.5666 11.0236C52.5666 10.9179 52.5282 10.8314 52.4705 10.8314C52.4225 10.8314 52.3744 10.7642 52.3744 10.6873C52.3744 10.6104 52.336 10.5432 52.2783 10.5432C52.2303 10.5432 52.1822 10.4759 52.1822 10.399C52.1822 10.3222 52.1438 10.2549 52.0862 10.2549C52.0381 10.2549 51.9901 10.1684 51.9901 10.0627C51.9901 9.95703 51.9516 9.87055 51.894 9.87055C51.8459 9.87055 51.7979 9.79368 51.7979 9.69759C51.7979 9.6015 51.7114 9.46698 51.6057 9.39011C51.5 9.31323 51.4135 9.17871 51.4135 9.08262C51.4135 8.98653 51.3751 8.90966 51.3174 8.90966C51.2694 8.90966 51.2213 8.82318 51.2213 8.71748C51.2213 8.61178 51.1829 8.5253 51.1252 8.5253C51.0772 8.5253 51.0291 8.44843 51.0291 8.35234C51.0291 8.25626 50.9427 8.12173 50.837 8.04486C50.7313 7.96799 50.6448 7.83346 50.6448 7.73737C50.6448 7.64128 50.6063 7.56441 50.5487 7.56441C50.5006 7.56441 50.4526 7.47794 50.4526 7.37224C50.4526 7.26654 50.4141 7.18006 50.3565 7.18006C50.3084 7.18006 50.2604 7.1128 50.2604 7.03592C50.2604 6.95905 50.222 6.89179 50.1643 6.89179C50.1163 6.89179 50.0682 6.82453 50.0682 6.74766C50.0682 6.67079 50.0298 6.60352 49.9721 6.60352C49.9241 6.60352 49.876 6.51704 49.876 6.41135C49.876 6.30565 49.8376 6.21917 49.7799 6.21917C49.7319 6.21917 49.6838 6.13269 49.6838 6.02699C49.6838 5.92129 49.6454 5.83481 49.5878 5.83481C49.5397 5.83481 49.4917 5.76755 49.4917 5.69068C49.4917 5.61381 49.4532 5.54655 49.3956 5.54655C49.3475 5.54655 49.2995 5.47928 49.2995 5.40241C49.2995 5.32554 49.261 5.25828 49.2034 5.25828C49.1553 5.25828 49.1073 5.1718 49.1073 5.0661C49.1073 4.9604 49.0689 4.87392 49.0112 4.87392C48.9632 4.87392 48.9151 4.78744 48.9151 4.68174C48.9151 4.57605 48.8767 4.48957 48.819 4.48957C48.771 4.48957 48.7229 4.42231 48.7229 4.34543C48.7229 4.26856 48.6845 4.2013 48.6268 4.2013C48.5788 4.2013 48.5307 4.13404 48.5307 4.05717C48.5307 3.9803 48.4923 3.91303 48.4346 3.91303C48.3866 3.91303 48.3386 3.82655 48.3386 3.72086C48.3386 3.61516 48.3001 3.52868 48.2425 3.52868C48.1944 3.52868 48.1464 3.4422 48.1464 3.3365C48.1464 3.2308 48.1079 3.14432 48.0503 3.14432C48.0022 3.14432 47.9542 3.07706 47.9542 3.00019C47.9542 2.92332 47.9157 2.85606 47.8581 2.85606C47.81 2.85606 47.762 2.78879 47.762 2.71192C47.762 2.63505 47.7236 2.56779 47.6659 2.56779C47.6179 2.56779 47.5698 2.48131 47.5698 2.37561C47.5698 2.26991 47.5314 2.18343 47.4737 2.18343C47.4257 2.18343 47.3776 2.09695 47.3776 1.99125C47.3776 1.88556 47.3392 1.79908 47.2815 1.79908C47.2335 1.79908 47.1854 1.73182 47.1854 1.65494C47.1854 1.57807 47.147 1.51081 47.0894 1.51081C47.0413 1.51081 46.9933 1.44355 46.9933 1.36668C46.9933 1.28981 46.9548 1.22254 46.8972 1.22254C46.8491 1.22254 46.8011 1.15528 46.8011 1.07841C46.8011 0.991928 46.6569 0.790142 46.484 0.617184C45.8402 -0.0266151 47.1566 0.021431 29.1681 0.00221252C16.7146 -0.0073967 12.7075 0.0118217 12.2943 0.10791ZM40.901 7.12241C41.0067 7.23771 41.0355 7.68933 41.0355 9.51502C41.0355 11.4848 41.0163 11.7827 40.8818 11.8308C40.7953 11.8596 38.7197 11.8884 36.2694 11.8884H31.8107V13.3778V14.8672H32.6755C33.1848 14.8672 33.5403 14.9056 33.5403 14.9633C33.5403 15.0209 33.9247 15.0594 34.5013 15.0594C35.0778 15.0594 35.4622 15.0978 35.4622 15.1554C35.4622 15.2131 35.7216 15.2515 36.0387 15.2515C36.3558 15.2515 36.6153 15.29 36.6153 15.3476C36.6153 15.4053 36.8747 15.4437 37.1918 15.4437C37.5089 15.4437 37.7684 15.4821 37.7684 15.5398C37.7684 15.5878 37.9894 15.6359 38.2489 15.6359C38.5179 15.6359 38.7293 15.6743 38.7293 15.732C38.7293 15.78 38.9023 15.8281 39.1137 15.8281C39.3251 15.8281 39.4981 15.8665 39.4981 15.9242C39.4981 15.9722 39.6326 16.0202 39.7863 16.0202C39.9497 16.0202 40.0746 16.0587 40.0746 16.1163C40.0746 16.1644 40.2091 16.2124 40.3629 16.2124C40.5262 16.2124 40.6512 16.2509 40.6512 16.3085C40.6512 16.3566 40.7376 16.4046 40.8433 16.4046C40.9491 16.4046 41.0355 16.443 41.0355 16.5007C41.0355 16.5487 41.1701 16.5968 41.3238 16.5968C41.4872 16.5968 41.6121 16.6352 41.6121 16.6929C41.6121 16.7409 41.6794 16.789 41.7658 16.789C41.8523 16.789 42.0445 16.9139 42.1886 17.0772C42.3328 17.231 42.525 17.3655 42.6115 17.3655C42.6979 17.3655 42.7652 17.4424 42.7652 17.5577C42.7652 17.6634 42.8132 17.7498 42.8613 17.7498C42.9189 17.7498 42.9574 17.8363 42.9574 17.942C42.9574 18.0477 43.0054 18.1342 43.0535 18.1342C43.1111 18.1342 43.1496 18.8356 43.1496 20.056C43.1496 21.2763 43.1111 21.9778 43.0535 21.9778C43.0054 21.9778 42.9574 22.0642 42.9574 22.1699C42.9574 22.2756 42.9189 22.3621 42.8613 22.3621C42.8132 22.3621 42.7652 22.4198 42.7652 22.487C42.7652 22.5543 42.6787 22.6696 42.5634 22.7465C42.4577 22.8233 42.2751 22.9675 42.1694 23.0636C42.0541 23.15 41.9292 23.2269 41.8908 23.2269C41.8523 23.2269 41.7562 23.2846 41.689 23.3422C41.6217 23.4095 41.4103 23.5248 41.2277 23.5921C41.0451 23.6689 40.6992 23.8034 40.459 23.8899C40.2188 23.986 39.6134 24.159 39.1137 24.2743C38.614 24.3896 38.0471 24.5241 37.8645 24.5722C37.5474 24.649 37.2399 24.6971 35.6544 24.9469C34.5973 25.1103 33.204 25.2448 32.4929 25.2448H31.8107V29.1844V33.1241H28.6396H25.4686V29.1844V25.2448H24.8728C24.3059 25.2448 23.4987 25.1679 21.721 24.9469C20.7793 24.8316 18.3577 24.3512 17.589 24.1302C17.3007 24.0437 16.9644 23.9572 16.8491 23.9284C16.7242 23.8995 16.6281 23.8419 16.6281 23.7938C16.6281 23.7458 16.5608 23.7074 16.4839 23.7074C16.2533 23.7074 15.1867 23.1404 14.9272 22.881C14.8023 22.7561 14.6582 22.6504 14.6101 22.6504C14.5525 22.6504 14.5141 22.5831 14.5141 22.5062C14.5141 22.4294 14.4756 22.3621 14.418 22.3621C14.3699 22.3621 14.3219 22.2276 14.3219 22.0738C14.3219 21.9105 14.2834 21.7856 14.2258 21.7856C14.1681 21.7856 14.1297 21.1418 14.1297 20.056C14.1297 18.9702 14.1681 18.3264 14.2258 18.3264C14.2834 18.3264 14.3219 18.2207 14.3219 18.0862C14.3219 17.8363 15.0714 16.9811 15.2828 16.9811C15.3404 16.9811 15.4558 16.9139 15.5422 16.837C15.6191 16.7505 15.8113 16.6544 15.965 16.6256C16.1188 16.5968 16.2437 16.5391 16.2437 16.4911C16.2437 16.443 16.3302 16.4046 16.4359 16.4046C16.5416 16.4046 16.6281 16.3566 16.6281 16.3085C16.6281 16.2509 16.7626 16.2124 16.9164 16.2124C17.0797 16.2124 17.2046 16.1644 17.2046 16.1163C17.2046 16.0587 17.3776 16.0202 17.589 16.0202C17.8004 16.0202 17.9734 15.9722 17.9734 15.9242C17.9734 15.8665 18.1463 15.8281 18.3577 15.8281C18.5691 15.8281 18.7421 15.78 18.7421 15.732C18.7421 15.6743 18.9151 15.6359 19.1265 15.6359C19.3379 15.6359 19.5109 15.5878 19.5109 15.5398C19.5109 15.4821 19.7703 15.4437 20.0874 15.4437C20.4045 15.4437 20.664 15.4053 20.664 15.3476C20.664 15.29 20.9234 15.2515 21.2405 15.2515C21.5576 15.2515 21.8171 15.2131 21.8171 15.1554C21.8171 15.0978 22.2014 15.0594 22.778 15.0594C23.3545 15.0594 23.7389 15.0209 23.7389 14.9633C23.7389 14.9056 24.0945 14.8672 24.6037 14.8672H25.4686V13.3778V11.8884H20.9522H16.4359V9.43815V6.98788H28.6012C39.008 6.98788 40.7761 7.0071 40.901 7.12241Z" fill="black"/>
<path d="M23.4834 17.7386C23.0674 17.7858 22.1313 17.9088 21.3938 18.0128C20.2213 18.183 19.7013 18.2775 18.4248 18.5801C17.8102 18.7219 16.3636 19.2325 15.8624 19.4877C15.3235 19.7619 15.1155 19.9227 15.1155 20.0929C15.1155 20.2347 15.3519 20.471 15.5031 20.471C15.5599 20.471 15.6828 20.5467 15.7679 20.6412C15.853 20.7358 16.1177 20.8776 16.373 20.9438C16.6189 21.0194 16.8174 21.114 16.8174 21.1518C16.8174 21.1896 16.9498 21.2274 17.1011 21.2274C17.2618 21.2274 17.3847 21.2653 17.3847 21.322C17.3847 21.3693 17.5171 21.4165 17.6684 21.4165C17.8291 21.4165 17.9521 21.4544 17.9521 21.5111C17.9521 21.5584 18.1223 21.6056 18.3303 21.6056C18.5383 21.6056 18.7085 21.6435 18.7085 21.7002C18.7085 21.7475 18.8787 21.7947 19.0867 21.7947C19.2947 21.7947 19.4649 21.8326 19.4649 21.8893C19.4649 21.9366 19.6824 21.9838 19.9377 21.9838C20.2024 21.9838 20.4104 22.0217 20.4104 22.0784C20.4104 22.1351 20.6941 22.1729 21.0723 22.1729C21.4505 22.1729 21.7342 22.2108 21.7342 22.2675C21.7342 22.3242 22.084 22.362 22.5851 22.362C23.0863 22.362 23.4361 22.3999 23.4361 22.4566C23.4361 22.5133 23.9751 22.5511 24.8544 22.5511C25.7338 22.5511 26.2727 22.589 26.2727 22.6457C26.2727 22.7024 27.1237 22.7402 28.6365 22.7402C30.0643 22.7402 31.0003 22.7024 31.0003 22.6457C31.0003 22.5984 31.6244 22.5417 32.447 22.5133C34.5366 22.4377 35.5389 22.362 35.5389 22.258C35.5389 22.2108 35.8414 22.1729 36.2007 22.1729C36.579 22.1729 36.8626 22.1351 36.8626 22.0784C36.8626 22.0217 37.0801 21.9838 37.3354 21.9838C37.6001 21.9838 37.8081 21.9366 37.8081 21.8893C37.8081 21.8326 37.9783 21.7947 38.1864 21.7947C38.3944 21.7947 38.5646 21.7475 38.5646 21.7002C38.5646 21.6435 38.7348 21.6056 38.9428 21.6056C39.1508 21.6056 39.321 21.5584 39.321 21.5111C39.321 21.4544 39.4534 21.4165 39.6046 21.4165C39.7654 21.4165 39.8883 21.3693 39.8883 21.322C39.8883 21.2653 40.0207 21.2274 40.172 21.2274C40.3327 21.2274 40.4556 21.1802 40.4556 21.1329C40.4556 21.0762 40.588 21.0383 40.7393 21.0383C40.9 21.0383 41.0229 20.9911 41.0229 20.9438C41.0229 20.8871 41.108 20.8492 41.212 20.8492C41.316 20.8492 41.4011 20.802 41.4011 20.7547C41.4011 20.698 41.4673 20.6601 41.543 20.6601C41.7132 20.6601 42.1576 20.2441 42.1576 20.0929C42.1576 19.9227 41.9496 19.7525 41.4106 19.4877C40.9 19.223 39.4628 18.7219 38.8009 18.5612C38.5929 18.5139 38.2525 18.4382 38.0445 18.391C36.6546 18.0695 33.2885 17.6346 32.2201 17.6346H31.7568V19.2325V20.8209L30.2723 20.8682C29.4497 20.8965 28.0408 20.8965 27.152 20.8776L25.5163 20.8209V19.2325V17.6346L24.8828 17.644C24.5235 17.6535 23.8994 17.6913 23.4834 17.7386Z" fill="black"/>
</svg>
