<svg width="125" height="46" viewBox="0 0 125 46" fill="none" xmlns="http://www.w3.org/2000/svg">
<path d="M0.573975 0H31.8973V4.94613H0.573975V0Z" fill="url(#paint0_linear_1156_7116)"/>
<path d="M0.573975 9.60352H31.8973V14.5496H0.573975V9.60352Z" fill="url(#paint1_linear_1156_7116)"/>
<path d="M0.573975 20.0781H31.8973V25.0242H0.573975V20.0781Z" fill="url(#paint2_linear_1156_7116)"/>
<path d="M56.72 0.0217794L59.8751 11.8972C60.0239 12.432 60.1611 12.9891 60.2868 13.5692C60.4125 14.1494 60.5438 14.8148 60.6813 15.5655C60.8529 14.6781 60.9985 13.9475 61.1185 13.3729C61.2384 12.7985 61.3556 12.3062 61.4699 11.8972L64.4194 0.0217794H71.3309L64.231 25.0013H57.8863L54.7821 14.337C54.6675 13.9614 54.4792 13.228 54.2163 12.1361C54.1016 11.6472 54.0104 11.2658 53.942 10.9929C53.8847 11.2317 53.8048 11.5675 53.7019 11.9996C53.439 13.1029 53.239 13.8823 53.1018 14.337L50.0491 25.0013H43.6869L36.6042 0.0217794H43.5152L46.3962 11.9653C46.5333 12.5797 46.6678 13.1939 46.7992 13.8081C46.9304 14.4223 47.0536 15.0537 47.1679 15.7019C47.2759 15.2006 47.3874 14.7001 47.5024 14.2003C47.6762 13.4537 47.8563 12.7086 48.0425 11.965L51.1982 0.0214844L56.72 0.0217794ZM73.8691 25.0013V0.0217794H80.7801V25.0013H73.8691ZM86.3018 25.0013V0.0217794H93.453C96.2539 0.0217794 98.2056 0.149506 99.309 0.405541C100.412 0.661282 101.364 1.09101 102.165 1.69357C103.068 2.37613 103.762 3.24636 104.249 4.30426C104.735 5.36214 104.977 6.52829 104.977 7.80204C104.977 9.73598 104.5 11.3083 103.545 12.5198C102.59 13.7313 101.199 14.5358 99.3694 14.9341L106.212 25.0013H98.4774L92.7155 15.2244V25.0015L86.3018 25.0013ZM92.7155 11.8291H93.9846C95.4595 11.8291 96.5369 11.5789 97.2175 11.0784C97.8973 10.578 98.2379 9.79301 98.2379 8.72378C98.2379 7.47271 97.9205 6.58237 97.2856 6.05344C96.6514 5.5248 95.5852 5.26002 94.0872 5.26002H92.7155V11.8291ZM108.819 25.0013V0.0217794H124.202V5.49888H115.49V9.8329H123.704V15.1904H115.49V19.4049H124.202V25.0013H108.819Z" fill="black"/>
<path d="M4.46823 45.5396V32.3334H0.573975V28.2461H13.0995V32.3334H9.20529V45.5396H4.46823ZM15.4147 45.5396V28.2461H20.3655C22.3046 28.2461 23.6559 28.3349 24.4196 28.5123C25.1835 28.6892 25.8426 28.9866 26.3965 29.4038C27.022 29.876 27.5027 30.4785 27.839 31.2109C28.1753 31.9435 28.3438 32.7509 28.3438 33.6324C28.3438 34.9714 28.0133 36.0601 27.3524 36.8986C26.6913 37.7375 25.7277 38.2944 24.4612 38.5705L29.1982 45.5393H23.8439L19.8546 38.7706V45.5393L15.4147 45.5396ZM19.8549 36.4206H20.7333C21.7545 36.4206 22.5002 36.2475 22.9713 35.9007C23.4421 35.5544 23.6778 35.011 23.6778 34.2702C23.6778 33.4037 23.4585 32.7881 23.019 32.4218C22.58 32.0558 21.8417 31.8725 20.8047 31.8725H19.8549V36.4206Z" fill="#202020"/>
<path d="M28.9619 45.5409L34.9575 28.2474H40.8938L46.9011 45.5409H42.1875L41.3091 42.4461H34.5773L33.6753 45.5409H28.9619ZM35.5985 39.0795H40.3119L38.543 33.374C38.4877 33.2011 38.4126 32.9213 38.3175 32.5355C38.2225 32.15 38.1 31.6539 37.9497 31.0473C37.8515 31.4535 37.7506 31.8591 37.647 32.264C37.5519 32.6356 37.4509 33.0056 37.344 33.374L35.5985 39.0795ZM48.5633 45.5409V28.2474H53.134L59.6992 37.1424C59.8261 37.3236 60.034 37.6876 60.3227 38.2349C60.6113 38.7822 60.9303 39.4341 61.2786 40.1901C61.1924 39.554 61.1231 38.9159 61.071 38.2762C61.0301 37.7811 61.0083 37.2847 61.0055 36.788V28.2474H65.5527V45.5409H61.0055L54.4402 36.6111C54.3054 36.4298 54.0934 36.0658 53.805 35.5183C53.5162 34.971 53.2015 34.3271 52.8608 33.5869C52.9558 34.3117 53.0252 34.953 53.0687 35.5124C53.1094 36.0075 53.1312 36.5039 53.134 37.0007V45.5409H48.5633ZM70.0527 39.9538C70.7571 40.7495 71.451 41.3436 72.1358 41.7376C72.8206 42.1316 73.5032 42.3282 74.1845 42.3282C74.8173 42.3282 75.3377 42.1589 75.7451 41.82C76.1531 41.4816 76.3568 41.0522 76.3568 40.5325C76.3568 39.9579 76.1805 39.5148 75.8287 39.204C75.4761 38.8927 74.6782 38.5721 73.4358 38.241C71.7348 37.7848 70.531 37.1895 69.8272 36.4572C69.1221 35.7248 68.7702 34.7211 68.7702 33.4447C68.7702 31.7909 69.3265 30.4429 70.4389 29.3993C71.5507 28.356 72.9926 27.834 74.766 27.834C75.7233 27.834 76.6314 27.962 77.4904 28.2178C78.3493 28.4738 79.1626 28.8616 79.9303 29.3813L78.4462 32.7715C77.9083 32.3152 77.3555 31.9702 76.7901 31.7377C76.2241 31.5058 75.6643 31.3894 75.1102 31.3894C74.5406 31.3894 74.077 31.5256 73.721 31.797C73.3649 32.0685 73.1872 32.4171 73.1872 32.8421C73.1872 33.275 73.3431 33.6222 73.6556 33.8817C73.9689 34.1412 74.5722 34.3897 75.4662 34.6262L75.6798 34.685C77.6112 35.2049 78.8817 35.7758 79.4913 36.3978C79.9022 36.8235 80.2154 37.3332 80.4289 37.9276C80.6424 38.5223 80.7499 39.1819 80.7499 39.9061C80.7499 41.7417 80.1445 43.2159 78.933 44.3306C77.7221 45.4443 76.1075 46.0015 74.089 46.0015C72.8782 46.0015 71.7762 45.7966 70.7824 45.3873C69.7886 44.9779 68.8341 44.3361 67.915 43.4621L70.0527 39.9538ZM83.4089 45.5409V28.2474H94.0584V32.0394H88.0268V35.0396H93.7142V38.749H88.0268V45.5409H83.4089ZM96.6346 45.5409V28.2474H107.284V32.0394H101.253V35.0396H106.941V38.749H101.253V41.6666H107.284V45.5406L96.6346 45.5409ZM110.419 45.5409V28.2474H115.369C117.309 28.2474 118.66 28.3362 119.424 28.5137C120.187 28.6905 120.847 28.9879 121.401 29.4052C122.026 29.8774 122.506 30.4799 122.844 31.2122C123.18 31.9448 123.348 32.7522 123.348 33.6338C123.348 34.9728 123.018 36.0615 122.357 36.9C121.696 37.7388 120.732 38.2957 119.466 38.5718L124.203 45.5406H118.848L114.859 38.772V45.5406L110.419 45.5409ZM114.859 36.422H115.738C116.758 36.422 117.504 36.2488 117.975 35.902C118.446 35.5558 118.681 35.0123 118.681 34.2716C118.681 33.4051 118.462 32.7894 118.023 32.4232C117.584 32.0571 116.846 31.8739 115.809 31.8739H114.859V36.422Z" fill="#202020"/>
<defs>
<linearGradient id="paint0_linear_1156_7116" x1="0.573975" y1="2.47306" x2="31.8973" y2="2.47306" gradientUnits="userSpaceOnUse">
<stop stop-opacity="0"/>
<stop offset="0.736" stop-opacity="0.84"/>
<stop offset="0.781" stop-opacity="0.86"/>
<stop offset="0.926" stop-opacity="0.94"/>
<stop offset="1"/>
</linearGradient>
<linearGradient id="paint1_linear_1156_7116" x1="0.573975" y1="12.0766" x2="31.8973" y2="12.0766" gradientUnits="userSpaceOnUse">
<stop stop-opacity="0"/>
<stop offset="0.736" stop-opacity="0.84"/>
<stop offset="0.781" stop-opacity="0.86"/>
<stop offset="0.926" stop-opacity="0.94"/>
<stop offset="1"/>
</linearGradient>
<linearGradient id="paint2_linear_1156_7116" x1="0.573975" y1="22.5512" x2="31.8973" y2="22.5512" gradientUnits="userSpaceOnUse">
<stop stop-opacity="0"/>
<stop offset="0.736" stop-opacity="0.84"/>
<stop offset="0.781" stop-opacity="0.86"/>
<stop offset="0.926" stop-opacity="0.94"/>
<stop offset="1"/>
</linearGradient>
</defs>
</svg>
