<svg width="20" height="17" viewBox="0 0 20 17" fill="none" xmlns="http://www.w3.org/2000/svg">
<g clip-path="url(#clip0_1812_23753)">
<path d="M17.4601 10.2277C17.544 9.76724 17.5864 9.31071 17.5864 8.86978C17.5864 7.87732 17.391 6.91425 17.0054 6.00751C16.6212 5.10407 16.0933 4.31281 15.4363 3.65569C14.7796 2.99893 13.9883 2.47093 13.0843 2.08658C12.1777 1.70102 11.2146 1.50555 10.2219 1.50555C9.78175 1.50555 9.32521 1.5481 8.86404 1.632C8.14692 1.13217 7.33871 0.878906 6.46064 0.878906C5.29844 0.878906 4.2922 1.29581 3.46985 2.11804C2.6475 2.94015 2.23047 3.94639 2.23047 5.10871C2.23047 5.98752 2.48373 6.79572 2.98356 7.51211C2.89967 7.97267 2.85723 8.42897 2.85723 8.8699C2.85723 9.8626 3.0527 10.8258 3.43827 11.7324C3.8225 12.6358 4.35037 13.4271 5.00737 14.0844C5.66401 14.7411 6.45539 15.269 7.35932 15.6535C8.26593 16.039 9.229 16.2345 10.2217 16.2345C10.6618 16.2345 11.1183 16.1919 11.5795 16.108C12.2966 16.6077 13.1048 16.8611 13.9831 16.8611C15.1452 16.8611 16.1514 16.4442 16.9739 15.622C17.7962 14.7996 18.2132 13.7934 18.2132 12.6313C18.2132 11.753 17.9599 10.9447 17.4601 10.2277ZM12.4881 12.9645C11.9091 13.4571 11.15 13.7068 10.2319 13.7068C9.43569 13.7068 8.73649 13.5375 8.15399 13.2033C7.48711 12.8209 7.14886 12.3605 7.14886 11.8348C7.14886 11.559 7.24677 11.2878 7.4398 11.0287C7.71953 10.6529 8.04169 10.574 8.26264 10.574C8.46445 10.574 8.67174 10.6532 8.87892 10.8098C9.0172 10.9143 9.15377 11.0317 9.28497 11.1589C9.33704 11.2097 9.44166 11.2881 9.64737 11.3763C9.80858 11.4457 9.98502 11.4794 10.1867 11.4794C10.4544 11.4794 10.6637 11.425 10.8268 11.3129C10.9094 11.2561 10.9858 11.1744 10.9858 10.9633C10.9858 10.8377 10.9524 10.7342 10.8803 10.6374C10.7886 10.5144 10.6679 10.4129 10.5117 10.3279C10.3108 10.2188 10.0862 10.1111 9.8443 10.0078C9.5797 9.89503 9.30778 9.76602 9.03622 9.62445C8.75125 9.47569 8.48652 9.30546 8.24959 9.11829C7.97743 8.90355 7.75696 8.61797 7.59454 8.26947C7.43407 7.92561 7.35261 7.53345 7.35261 7.10374C7.35261 6.62306 7.45248 6.18859 7.64941 5.81229C7.84927 5.43001 8.12351 5.12639 8.46445 4.91031C8.776 4.71265 9.11402 4.56559 9.46886 4.47329C9.81589 4.3833 10.1868 4.33769 10.5715 4.33769C10.7855 4.33769 11.0143 4.35257 11.2516 4.38183C11.4886 4.41134 11.7419 4.45987 12.0048 4.52621C12.3192 4.60583 12.5844 4.73643 12.7935 4.91422C13.0534 5.13565 13.1905 5.41977 13.1905 5.73608C13.1905 5.98788 13.1155 6.24322 12.9674 6.49502C12.7773 6.81767 12.4812 6.99522 12.1335 6.99522C11.9986 6.99522 11.8382 6.95364 11.3777 6.73463C11.1405 6.62221 10.8692 6.56502 10.5715 6.56502C10.2678 6.56502 10.0334 6.61635 9.89381 6.71329C9.79711 6.78048 9.76114 6.8495 9.76114 6.96802C9.76114 7.0268 9.7748 7.09923 9.87674 7.19056C10.0139 7.31348 10.1913 7.41676 10.4041 7.49772C10.6839 7.60405 10.9908 7.73953 11.3165 7.90037C11.6477 8.06401 11.9593 8.24423 12.243 8.43604C12.5743 8.66004 12.8519 8.98172 13.0685 9.39216C13.2847 9.80224 13.3943 10.2813 13.3943 10.8162C13.3943 11.7301 13.0893 12.4529 12.4881 12.9645Z" fill="black"/>
</g>
<defs>
<clipPath id="clip0_1812_23753">
<rect width="19.24" height="15.9822" fill="white" transform="translate(0.601562 0.878906)"/>
</clipPath>
</defs>
</svg>
