<svg width="41" height="41" viewBox="0 0 41 41" fill="none" xmlns="http://www.w3.org/2000/svg">
<g opacity="0.6">
<path fill-rule="evenodd" clip-rule="evenodd" d="M1.12744 8.14382V32.859C1.12744 34.0768 1.63011 35.2455 2.52815 36.1066C3.41772 36.9596 4.6236 37.4404 5.88164 37.4404H35.1183C36.3764 37.4404 37.5823 36.9596 38.4718 36.1066C39.3699 35.2455 39.8725 34.0768 39.8725 32.859V8.14382V8.14139C39.8725 5.61771 37.7503 3.56006 35.1183 3.56006H35.1158H5.88415H5.88164C3.24972 3.56006 1.12744 5.61771 1.12744 8.14139V8.14382ZM2.22548 32.859V11.4125H38.7745V32.859C38.7745 33.7801 38.3911 34.6627 37.7119 35.314C37.0242 35.9735 36.0909 36.3423 35.1183 36.3423H5.88164C4.90909 36.3423 3.97576 35.9735 3.28807 35.314C2.60885 34.6627 2.22548 33.7801 2.22548 32.859ZM20.9031 34.4776C23.8271 34.4776 26.474 33.2503 28.3543 31.284L28.3676 32.4185C28.3701 32.6341 28.4987 32.8283 28.6961 32.9149C28.8936 33.0015 29.1234 32.9645 29.2837 32.8203L30.6485 31.5929L33.81 35.1084C34.0128 35.3338 34.3599 35.3522 34.5854 35.1495L37.1489 32.844C37.3743 32.6412 37.3927 32.2941 37.19 32.0686L34.0284 28.5532L35.3936 27.3254C35.554 27.1812 35.6151 26.9565 35.5498 26.751C35.4845 26.5455 35.305 26.3972 35.0909 26.3719L31.0719 25.8971C31.1681 25.3328 31.2183 24.7532 31.2183 24.1623C31.2183 21.4906 30.1937 19.0503 28.5169 17.2146C26.6283 15.147 23.9124 13.847 20.9031 13.847C17.8938 13.847 15.1779 15.147 13.2892 17.2146C11.6125 19.0503 10.5878 21.4906 10.5878 24.1623C10.5878 26.879 11.6474 29.3565 13.3747 31.2023C15.2593 33.2162 17.9388 34.4776 20.9031 34.4776ZM24.5272 19.2541C24.954 20.5249 25.218 22.0147 25.2674 23.6132H21.4521H20.3541H16.54C16.5894 22.0148 16.8532 20.525 17.2798 19.2543C18.2464 19.4251 19.279 19.53 20.3542 19.5567C20.536 19.5612 20.719 19.5635 20.9031 19.5635C21.0873 19.5635 21.2703 19.5612 21.4521 19.5567C22.5276 19.53 23.5605 19.4251 24.5272 19.2541ZM13.9171 30.1631C12.6396 28.6787 11.825 26.7854 11.7021 24.7113H15.4416C15.4923 26.4322 15.78 28.0364 16.2401 29.4108C15.3959 29.6122 14.6154 29.8662 13.9171 30.1631ZM23.3591 31.451C22.8038 32.2318 22.1601 32.7809 21.4521 32.9708V29.9908C22.3609 30.0145 23.2371 30.0965 24.0644 30.2296C23.852 30.6806 23.6158 31.0901 23.3591 31.451ZM18.3554 33.0202C16.9996 32.6285 15.7704 31.9326 14.7473 31.0119C15.3277 30.7901 15.9612 30.5994 16.6372 30.4445C16.9071 31.0599 17.2147 31.6121 17.5526 32.0873C17.804 32.4408 18.0727 32.7529 18.3554 33.0202ZM30.1041 24.7113C30.0829 25.0693 30.0411 25.4219 29.9798 25.7681L28.9081 25.6414C28.7512 25.6229 28.594 25.6728 28.4765 25.7784C28.3591 25.8841 28.2928 26.0351 28.2947 26.1931L28.3346 29.6034C28.1933 29.7956 28.0448 29.9822 27.8894 30.1627C27.191 29.8658 26.4108 29.612 25.567 29.4106C26.0272 28.0363 26.315 26.4321 26.3658 24.7113H30.1041ZM14.6503 17.4012C15.6925 16.4365 16.9565 15.7085 18.3554 15.3044C18.0727 15.5717 17.804 15.8837 17.5526 16.2373C17.194 16.7417 16.8693 17.3328 16.5879 17.9943C15.8926 17.8329 15.2428 17.6335 14.6503 17.4012ZM27.9674 18.2537C29.1998 19.724 29.9837 21.5819 30.1041 23.6132H26.3658C26.3164 21.9405 26.0431 20.3781 25.6052 19.0298C26.466 18.8225 27.2599 18.5605 27.9674 18.2537ZM11.7021 23.6132C11.8225 21.5819 12.6063 19.724 13.8387 18.2537C14.5464 18.5605 15.3407 18.8226 16.2018 19.0299C15.7641 20.3783 15.4909 21.9406 15.4416 23.6132H11.7021ZM25.2674 24.7113C25.2164 26.3595 24.9374 27.8921 24.487 29.1883C23.5318 29.0213 22.5127 28.9189 21.4521 28.8925V24.7113H25.2674ZM23.451 15.3045C24.85 15.7086 26.1138 16.4366 27.1558 17.4012C26.5635 17.6334 25.914 17.8328 25.2189 17.9942C24.9374 17.3327 24.6127 16.7416 24.254 16.2372C24.0026 15.8837 23.7339 15.5717 23.451 15.3045ZM18.4475 31.451C18.191 31.0903 17.9549 30.6808 17.7425 30.2298C18.5696 30.0967 19.4456 30.0146 20.3541 29.9909V32.9708C19.6462 32.7809 19.0027 32.2318 18.4475 31.451ZM23.3591 16.8736C23.6376 17.2652 23.8921 17.7141 24.1182 18.2111C23.2751 18.3492 22.3805 18.4342 21.4521 18.4583V15.3538C22.1601 15.5437 22.8038 16.0928 23.3591 16.8736ZM17.3201 29.1884C16.8698 27.8922 16.5909 26.3596 16.54 24.7113H20.3541V28.8925C19.2937 28.919 18.2749 29.0214 17.3201 29.1884ZM18.4475 16.8735C19.0027 16.0928 19.6462 15.5437 20.3541 15.3538V18.4583C19.4259 18.4342 18.5315 18.3492 17.6886 18.2112C17.9147 17.7142 18.1691 17.2652 18.4475 16.8735ZM29.4514 31.1928L29.3999 26.8052L33.7575 27.3201L32.8859 28.1039C32.6605 28.3066 32.642 28.6538 32.8448 28.8793L36.0064 32.3946L34.2594 33.9659L31.0977 30.4505C30.895 30.225 30.5478 30.2066 30.3224 30.4094L29.4514 31.1928ZM27.0594 31.0115C26.0362 31.9324 24.8071 32.6284 23.451 33.0201C23.7339 32.7528 24.0026 32.4408 24.254 32.0874C24.592 31.6121 24.8998 31.0598 25.1698 30.4442C25.8456 30.599 26.479 30.7897 27.0594 31.0115ZM38.7745 8.14382V10.3144H2.22548V8.14382V8.14139C2.22619 7.22053 2.60972 6.33833 3.28885 5.68712C3.97638 5.02782 4.90932 4.65873 5.88164 4.6581H5.88415H35.1158H35.1183C36.0907 4.65873 37.0236 5.02782 37.7111 5.68712C38.3903 6.33833 38.7738 7.22053 38.7745 8.14139V8.14382ZM36.3268 7.48625C36.3268 6.93253 35.877 6.48296 35.3229 6.48296C34.7689 6.48296 34.319 6.93253 34.319 7.48625C34.319 8.03998 34.7689 8.48955 35.3229 8.48955C35.877 8.48955 36.3268 8.03998 36.3268 7.48625ZM33.1952 7.48625C33.1952 6.93253 32.7453 6.48296 32.1913 6.48296C31.6372 6.48296 31.1874 6.93253 31.1874 7.48625C31.1874 8.03998 31.6372 8.48955 32.1913 8.48955C32.7453 8.48955 33.1952 8.03998 33.1952 7.48625ZM30.0635 7.48625C30.0635 6.93253 29.6137 6.48296 29.0596 6.48296C28.5056 6.48296 28.0557 6.93253 28.0557 7.48625C28.0557 8.03998 28.5056 8.48955 29.0596 8.48955C29.6137 8.48955 30.0635 8.03998 30.0635 7.48625Z" fill="black"/>
<path d="M21.4521 19.5567C21.2703 19.5612 21.0873 19.5635 20.9031 19.5635C20.719 19.5635 20.536 19.5612 20.3542 19.5567L20.3541 23.6132H21.4521V19.5567Z" fill="black"/>
</g>
</svg>
