<svg width="41" height="41" viewBox="0 0 41 41" fill="none" xmlns="http://www.w3.org/2000/svg">
<g opacity="0.6">
<path fill-rule="evenodd" clip-rule="evenodd" d="M8.07626 11.9139C6.61093 12.0238 5.25815 11.0038 4.99077 9.52814C4.70403 7.95049 5.7616 6.42539 7.33869 6.13975L9.44528 5.75779C9.60395 5.729 9.75909 5.77151 9.87768 5.86257C12.0689 5.17473 13.9241 4.17732 15.2165 3.03167C15.0805 2.153 15.674 1.31355 16.5537 1.15394C17.4476 0.991747 18.3114 1.59112 18.4736 2.485L18.9592 5.16179C19.051 5.12931 19.1466 5.10375 19.2456 5.08579C20.2375 4.90547 21.188 5.56343 21.368 6.55669C21.5483 7.54869 20.8903 8.49912 19.897 8.67912C19.7983 8.69708 19.6999 8.70673 19.6028 8.70853L20.0884 11.3853C20.2512 12.2781 19.6529 13.1428 18.7587 13.305C17.8793 13.4646 17.0287 12.888 16.8469 12.0181C15.28 11.4161 13.2643 11.1328 11.0465 11.2332L12.0756 14.626C12.2293 15.1325 11.9806 15.6652 11.4934 15.8666C11.48 15.8722 11.4664 15.8772 11.4526 15.8817C11.4526 15.8817 10.5267 16.1814 10.5255 16.1816C10.2616 16.285 9.99273 16.277 9.73156 16.1568L9.73124 16.1566C9.4623 16.0325 9.27595 15.8216 9.18826 15.539C9.18811 15.5384 9.18795 15.5379 9.18779 15.5373L8.07626 11.9139ZM10.212 6.90837L10.7996 10.1463C12.9801 10.0274 14.9864 10.261 16.6212 10.7772L15.441 4.27245C14.0914 5.32979 12.295 6.25339 10.212 6.90837ZM10.0044 11.5804L9.16897 11.7318C9.47634 12.7339 10.0793 14.6997 10.2112 15.1294L11.0032 14.8731L10.0044 11.5804ZM19.1621 6.28006L19.3999 7.59018C19.4956 7.61347 19.5976 7.61755 19.7008 7.59873H19.7011C20.097 7.52696 20.3596 7.14837 20.2876 6.753L20.2876 6.75261C20.2159 6.35677 19.8372 6.09426 19.4419 6.16618H19.4415C19.3381 6.18492 19.2438 6.22461 19.1621 6.28006ZM16.7498 2.23434C16.4501 2.28869 16.2497 2.57849 16.304 2.8781L17.9189 11.7789C17.9733 12.0786 18.2631 12.279 18.5627 12.2246C18.8621 12.1703 19.0626 11.8811 19.0081 11.582L17.3931 2.681C17.3388 2.38132 17.0494 2.17998 16.7498 2.23434ZM9.10105 6.93614L7.53454 7.22022C6.55164 7.39826 5.89234 8.34869 6.07117 9.3319V9.33222C6.2492 10.3151 7.20003 10.9734 8.18317 10.7946L9.74975 10.5106L9.10105 6.93614ZM16.0559 32.6597C16.3345 32.779 16.4639 33.1019 16.3446 33.3805C16.2253 33.6591 15.9023 33.7884 15.6238 33.6691C10.3896 31.4279 6.71885 26.2282 6.71885 20.178C6.71885 18.4801 7.00811 16.8492 7.53971 15.3318C7.63987 15.0459 7.95344 14.895 8.2394 14.9952C8.52536 15.0954 8.67618 15.4089 8.57603 15.6949C8.08418 17.0986 7.81689 18.6073 7.81689 20.178C7.81689 25.7756 11.2134 30.5861 16.0559 32.6597ZM25.7455 7.3232C25.4586 7.22579 25.3047 6.91379 25.4021 6.62688C25.4994 6.3399 25.8115 6.18602 26.0984 6.28335C31.8865 8.24751 36.0563 13.7296 36.0563 20.178C36.0563 23.1623 35.1632 25.9396 33.63 28.2572C33.6032 28.2975 33.5763 28.3377 33.5493 28.3779C33.3796 28.6288 33.038 28.695 32.7869 28.5252C32.5359 28.3556 32.4698 28.014 32.6395 27.763C32.6646 27.7259 32.6894 27.6886 32.7142 27.6513C34.1324 25.5076 34.9583 22.9385 34.9583 20.178C34.9583 14.2122 31.1005 9.14037 25.7455 7.3232ZM20.1464 29.8462C20.4469 29.8845 20.6599 30.1596 20.6217 30.4601C20.5834 30.7608 20.3083 30.9737 20.0077 30.9354C14.673 30.2565 10.5429 25.6958 10.5429 20.178C10.5429 18.9476 10.7484 17.7648 11.1267 16.6619C11.225 16.3754 11.5375 16.2225 11.8241 16.3208C12.1108 16.4191 12.2636 16.7316 12.1654 17.0183C11.8254 18.0093 11.641 19.0723 11.641 20.178C11.641 25.1368 15.3521 29.236 20.1464 29.8462ZM24.8066 11.0488C24.5229 10.9423 24.3789 10.6256 24.4854 10.3419C24.5918 10.0582 24.9086 9.91426 25.1923 10.0207C29.3032 11.563 32.2323 15.5311 32.2323 20.178C32.2323 22.9709 31.1742 25.5187 29.4374 27.4419C29.3973 27.4864 29.3568 27.5306 29.3159 27.5743C29.1091 27.7958 28.7614 27.8078 28.5399 27.6011C28.3184 27.3943 28.3065 27.0466 28.5132 26.8251C28.55 26.7857 28.5864 26.746 28.6225 26.706C30.1834 24.9776 31.1342 22.688 31.1342 20.178C31.1342 16.0014 28.5015 12.4349 24.8066 11.0488ZM13.4241 14.5601C13.2491 14.8076 12.9062 14.8664 12.6589 14.6914C12.4114 14.5165 12.3527 14.1736 12.5276 13.9262C13.0538 13.182 13.6714 12.507 14.3639 11.9175C14.5947 11.7211 14.9414 11.7489 15.1378 11.9797C15.3343 12.2104 15.3064 12.5572 15.0757 12.7536C14.4528 13.2838 13.8974 13.8909 13.4241 14.5601ZM20.3185 26.0041C20.6167 26.0586 20.8145 26.3448 20.76 26.6429C20.7057 26.9409 20.4195 27.1388 20.1214 27.0844C16.8502 26.4873 14.3671 23.6205 14.3671 20.178C14.3671 16.3032 17.5129 13.1574 21.3876 13.1574C25.2624 13.1574 28.4082 16.3032 28.4082 20.178C28.4082 22.1521 27.5917 23.9371 26.2781 25.2132C26.0608 25.4243 25.713 25.4193 25.5018 25.2019C25.2907 24.9846 25.2957 24.6367 25.513 24.4256C26.6211 23.3491 27.3101 21.8434 27.3101 20.178C27.3101 16.9092 24.6563 14.2554 21.3876 14.2554C18.1189 14.2554 15.4651 16.9092 15.4651 20.178C15.4651 23.0818 17.5592 25.5005 20.3185 26.0041ZM20.5387 22.0975C20.8157 22.2203 20.9408 22.5449 20.8179 22.8219C20.6951 23.0989 20.3705 23.224 20.0934 23.1012C18.9732 22.6041 18.1912 21.4816 18.1912 20.178C18.1912 18.4138 19.6235 16.9815 21.3876 16.9815C23.1518 16.9815 24.5841 18.4138 24.5841 20.178C24.5841 20.2591 24.581 20.3395 24.5751 20.4192C24.5524 20.7213 24.2887 20.9483 23.9866 20.9256C23.6844 20.903 23.4575 20.6393 23.4801 20.3372C23.484 20.2846 23.4861 20.2315 23.4861 20.178C23.4861 19.0198 22.5458 18.0796 21.3876 18.0796C20.2294 18.0796 19.2892 19.0198 19.2892 20.178C19.2892 21.0341 19.803 21.771 20.5387 22.0975ZM24.9074 28.3373C25.1294 28.2227 25.3889 28.156 25.6895 28.156H25.6903C26.2939 28.1568 26.7287 28.4146 27.0265 28.7866C27.3353 28.4081 27.7702 28.156 28.3403 28.156H28.341C28.9191 28.1568 29.3577 28.4167 29.6667 28.8044C29.9778 28.4155 30.417 28.156 30.989 28.156C32.0187 28.156 32.8626 29.0002 32.8629 30.0296L32.8952 34.0135C32.8953 34.0279 32.8949 34.0422 32.8939 34.0565C32.632 37.7877 30.0477 39.7951 26.8023 39.8706C24.8161 39.9167 22.9983 39.1426 21.4363 38.1464C19.9431 37.194 18.6894 36.0429 17.7539 35.285C17.1568 34.8013 16.8799 34.2562 16.8185 33.7336C16.7545 33.1896 16.9234 32.6546 17.274 32.1991C17.9625 31.3044 19.0892 31.1648 20.1307 31.7463L21.1637 32.2895L21.1628 22.9486C21.1628 21.918 22.0081 21.0747 23.0387 21.0747H23.0395C24.0699 21.0762 24.9126 21.9203 24.9126 22.9506V22.9512L24.9074 28.3373ZM30.2131 30.4706V30.4766C30.2127 30.7795 29.967 31.0248 29.6641 31.0248C29.3612 31.0248 29.1155 30.7795 29.1151 30.4766V30.4706C29.1147 30.1975 29.0465 29.8659 28.8869 29.6026C28.7704 29.4104 28.5977 29.2546 28.3399 29.254C28.0821 29.2542 27.909 29.4098 27.7922 29.6019C27.6323 29.8648 27.5638 30.1965 27.5634 30.4702V30.4766C27.5629 30.7795 27.3173 31.0248 27.0144 31.0248C26.7114 31.0248 26.4658 30.7795 26.4654 30.4766V30.4698C26.4651 30.2444 26.4293 29.9805 26.3337 29.7451C26.2279 29.4845 26.0378 29.2547 25.689 29.254C25.4085 29.2542 25.2292 29.4111 25.1158 29.6105C24.963 29.879 24.9074 30.2142 24.9053 30.4884V30.5203C24.905 30.8227 24.66 31.0681 24.3576 31.0688C24.0551 31.0695 23.809 30.8254 23.8072 30.5229C23.8072 30.5216 23.8072 30.4995 23.8072 30.4896L23.8145 22.9506C23.8145 22.5235 23.4654 22.1736 23.0383 22.1728C22.6115 22.1729 22.2608 22.5217 22.2608 22.9486L22.2618 33.1985C22.2618 33.3908 22.1613 33.5691 21.9967 33.6685C21.8321 33.7679 21.6275 33.774 21.4573 33.6845L19.6133 32.7148C19.6088 32.7125 19.6043 32.71 19.5999 32.7076C19.0727 32.4114 18.4928 32.4157 18.1442 32.8688C17.9748 33.0888 17.8781 33.3426 17.909 33.6055C17.9424 33.8896 18.1204 34.1688 18.4451 34.4318C19.3556 35.1696 20.5734 36.2936 22.0269 37.2207C23.4116 38.104 25.0158 38.8137 26.7768 38.7728C29.4461 38.7108 31.5729 37.0632 31.797 34.0006L31.7648 30.0365C31.7648 30.0346 31.7648 30.0329 31.7648 30.0312C31.7654 29.6044 31.4158 29.254 30.989 29.254C30.7347 29.254 30.5629 29.4112 30.4454 29.6032C30.2847 29.8659 30.2134 30.1972 30.2131 30.4706ZM22.8813 6.83951C22.5831 6.89347 22.2972 6.6952 22.2432 6.397C22.1893 6.09888 22.3876 5.813 22.6858 5.75904L24.2415 5.47755C24.5397 5.42359 24.8256 5.62186 24.8796 5.92006C24.9335 6.21818 24.7352 6.50406 24.437 6.55802L22.8813 6.83951ZM21.6803 4.54712C21.4491 4.74296 21.1024 4.71418 20.9065 4.48296C20.7108 4.25175 20.7395 3.905 20.9708 3.70916L22.2434 2.63143C22.4746 2.43559 22.8214 2.46437 23.0172 2.69559C23.213 2.92681 23.1843 3.27355 22.953 3.46932L21.6803 4.54712ZM21.9956 9.36147C21.7103 9.25928 21.5618 8.94469 21.6639 8.65943C21.7662 8.37418 22.0808 8.22563 22.3661 8.32782L23.9362 8.89049C24.2214 8.99277 24.37 9.30735 24.2678 9.59261C24.1655 9.87786 23.8509 10.0264 23.5658 9.92422L21.9956 9.36147Z" fill="black"/>
</g>
</svg>
