<svg width="40" height="41" viewBox="0 0 40 41" fill="none" xmlns="http://www.w3.org/2000/svg">
<g opacity="0.6">
<path d="M36.7725 1.58203H3.94211C2.15617 1.58203 0.703125 3.035 0.703125 4.82102V26.3471C0.703125 28.133 2.15617 29.5861 3.94211 29.5861H14.5946C14.5731 31.6797 14.0648 33.798 13.498 35.0468H11.235C10.0298 35.0468 9.04938 36.0273 9.04938 37.2323C9.04938 38.4375 10.0298 39.418 11.235 39.418H28.7655C29.9707 39.418 30.9512 38.4375 30.9512 37.2323C30.9512 36.0272 29.9707 35.0467 28.7655 35.0467H26.4968C25.9035 33.7755 25.3627 31.6496 25.3227 29.586H36.0579C37.8438 29.586 39.2969 28.133 39.2969 26.347V4.10687C39.2969 2.71469 38.1645 1.58203 36.7725 1.58203ZM3.94211 2.67578H36.7725C37.5614 2.67578 38.2031 3.31781 38.2031 4.10687V23.1373H1.79688V4.82102C1.79688 3.63812 2.75922 2.67578 3.94211 2.67578ZM29.8573 37.2324C29.8573 37.8345 29.3675 38.3243 28.7655 38.3243H11.235C10.633 38.3243 10.1431 37.8345 10.1431 37.2324C10.1431 36.6304 10.633 36.1406 11.235 36.1406H28.7655C29.3675 36.1405 29.8573 36.6304 29.8573 37.2324ZM25.303 35.0468H14.6859C15.2852 33.5224 15.6684 31.4554 15.688 29.5861H24.2291C24.264 31.4326 24.6745 33.5008 25.303 35.0468ZM36.0579 28.4923H3.94211C2.75922 28.4923 1.79688 27.53 1.79688 26.3471V24.2311H38.2031V26.3471C38.2031 27.53 37.2408 28.4923 36.0579 28.4923ZM22.0269 26.3618C22.0269 26.6638 21.782 26.9087 21.48 26.9087H18.5199C18.2179 26.9087 17.973 26.6638 17.973 26.3618C17.973 26.0598 18.2179 25.8149 18.5199 25.8149H21.48C21.7821 25.8149 22.0269 26.0598 22.0269 26.3618ZM4.36031 14.6355C4.79133 14.6355 5.14734 14.8739 5.31266 15.2731C5.47805 15.6723 5.39484 16.0927 5.09 16.3974C4.69414 16.7934 4.69414 17.4377 5.09 17.8335L6.09891 18.8424C6.495 19.2384 7.13906 19.2384 7.53523 18.8424C7.83984 18.5377 8.26016 18.4545 8.65945 18.6198C9.05867 18.7852 9.29703 19.1412 9.29703 19.5722C9.29703 20.1321 9.75258 20.5877 10.3126 20.5877H11.7394C12.2993 20.5877 12.7548 20.1322 12.7548 19.5722C12.7548 19.1404 12.993 18.784 13.392 18.6187C13.7909 18.4535 14.2114 18.5371 14.5166 18.8423C14.7084 19.0342 14.9635 19.1399 15.2348 19.1399C15.5062 19.1399 15.7612 19.0342 15.9529 18.8424L16.2009 18.5944H18.0434L19.844 20.3951C19.746 20.603 19.6895 20.8342 19.6895 21.079C19.6895 21.9677 20.4126 22.6907 21.3013 22.6907C22.19 22.6907 22.913 21.9677 22.913 21.079C22.913 20.1903 22.19 19.4673 21.3013 19.4673C21.0566 19.4673 20.8253 19.5237 20.6173 19.6217L18.6566 17.6609C18.554 17.5584 18.4148 17.5008 18.2698 17.5008H17.1831C17.3331 17.1334 17.2595 16.6953 16.9618 16.3975C16.657 16.0927 16.5738 15.6724 16.7391 15.2732C16.9045 14.874 17.2605 14.6356 17.6915 14.6356C18.2515 14.6356 18.707 14.1801 18.707 13.6201V13.4536H19.787C20.0116 14.0735 20.6047 14.5184 21.3012 14.5184C22.1899 14.5184 22.913 13.7954 22.913 12.9067C22.913 12.018 22.1899 11.295 21.3012 11.295C20.6047 11.295 20.0117 11.7399 19.787 12.3598H18.707V12.1933C18.707 11.6334 18.2515 11.1778 17.6915 11.1778C17.2605 11.1778 16.9045 10.9395 16.7392 10.5402C16.5738 10.1409 16.657 9.72062 16.9618 9.41586C17.1535 9.22406 17.2591 8.96906 17.2591 8.69781C17.2591 8.56352 17.2331 8.4332 17.1837 8.31258H18.2699C18.4149 8.31258 18.5541 8.255 18.6566 8.15242L20.6174 6.19164C20.8254 6.28969 21.0566 6.34609 21.3013 6.34609C22.1901 6.34609 22.9131 5.62305 22.9131 4.7343C22.9131 3.84562 22.1901 3.12258 21.3013 3.12258C20.4127 3.12258 19.6896 3.84562 19.6896 4.7343C19.6896 4.97898 19.746 5.21023 19.8441 5.4182L18.0434 7.21875H16.201L15.953 6.9707C15.557 6.57477 14.9127 6.57484 14.5167 6.9707C14.212 7.27547 13.7918 7.35859 13.3924 7.19328C12.9932 7.02797 12.7548 6.67195 12.7548 6.24094C12.7548 5.68102 12.2993 5.22539 11.7394 5.22539H10.3126C9.75258 5.22539 9.29703 5.68094 9.29703 6.24094C9.29703 6.67195 9.05867 7.02797 8.65945 7.19328C8.26031 7.35867 7.84 7.27539 7.53508 6.97055C7.13937 6.57484 6.49508 6.57484 6.09891 6.97062L5.09008 7.97969C4.89836 8.17148 4.79273 8.42648 4.79273 8.69773C4.79273 8.96906 4.89836 9.22406 5.09016 9.41578C5.39484 9.72055 5.47813 10.1408 5.31273 10.5401C5.14742 10.9393 4.79133 11.1777 4.36039 11.1777C3.80047 11.1777 3.34492 11.6332 3.34492 12.1931V13.6199C3.34484 14.18 3.80047 14.6355 4.36031 14.6355ZM21.3013 20.5609C21.587 20.5609 21.8194 20.7933 21.8194 21.0789C21.8194 21.3645 21.587 21.5969 21.3013 21.5969C21.0158 21.5969 20.7834 21.3645 20.7834 21.0789C20.7834 20.7933 21.0158 20.5609 21.3013 20.5609ZM21.3013 12.3886C21.587 12.3886 21.8194 12.621 21.8194 12.9066C21.8194 13.1921 21.587 13.4245 21.3013 13.4245C21.0158 13.4245 20.7834 13.1921 20.7834 12.9066C20.7834 12.621 21.0158 12.3886 21.3013 12.3886ZM21.3013 4.21617C21.587 4.21617 21.8194 4.44859 21.8194 4.73414C21.8194 5.01977 21.587 5.25219 21.3013 5.25219C21.0158 5.25219 20.7834 5.01977 20.7834 4.73414C20.7834 4.44859 21.0158 4.21617 21.3013 4.21617ZM4.43859 12.2702C5.28031 12.2411 5.99781 11.7442 6.3232 10.9587C6.64859 10.1731 6.49258 9.31445 5.91789 8.69867L6.81805 7.79844C7.43383 8.37305 8.2925 8.52922 9.07805 8.20383C9.86359 7.87844 10.3605 7.16094 10.3895 6.31922H11.6625C11.6915 7.16094 12.1884 7.87844 12.9739 8.20383C13.7595 8.5293 14.6182 8.3732 15.2339 7.79852L16.1341 8.69875C15.5594 9.31453 15.4034 10.1732 15.7288 10.9587C16.0541 11.7443 16.7716 12.2412 17.6134 12.2702V13.5431C16.7716 13.5722 16.0541 14.069 15.7288 14.8545C15.4034 15.6401 15.5594 16.4988 16.1341 17.1145L15.2339 18.0147C14.6177 17.4395 13.7588 17.2829 12.9734 17.6083C12.1881 17.9336 11.6915 18.6516 11.6625 19.494H10.3895C10.3605 18.6523 9.86359 17.9348 9.07805 17.6094C8.29242 17.2839 7.43383 17.44 6.81805 18.0147L5.91789 17.1145C6.49258 16.4987 6.64867 15.6401 6.3232 14.8545C5.99781 14.069 5.28031 13.5721 4.43859 13.543V12.2702ZM11.026 16.9399C13.25 16.9399 15.0593 15.1306 15.0593 12.9066C15.0593 10.6827 13.25 8.87336 11.026 8.87336C8.80203 8.87336 6.99273 10.6827 6.99273 12.9066C6.99273 15.1306 8.80203 16.9399 11.026 16.9399ZM11.026 9.96711C12.6469 9.96711 13.9655 11.2858 13.9655 12.9066C13.9655 14.5275 12.6469 15.8462 11.026 15.8462C9.40516 15.8462 8.08648 14.5275 8.08648 12.9066C8.08648 11.2858 9.40516 9.96711 11.026 9.96711ZM11.026 15.1608C12.269 15.1608 13.2802 14.1495 13.2802 12.9066C13.2802 11.6636 12.2691 10.6523 11.026 10.6523C9.78297 10.6523 8.7718 11.6636 8.7718 12.9066C8.7718 14.1495 9.78305 15.1608 11.026 15.1608ZM11.026 11.7462C11.6659 11.7462 12.1865 12.2667 12.1865 12.9066C12.1865 13.5466 11.6659 14.0671 11.026 14.0671C10.3861 14.0671 9.86555 13.5466 9.86555 12.9066C9.86555 12.2667 10.3861 11.7462 11.026 11.7462ZM25.4393 11.2924C25.4393 10.9904 25.6841 10.7455 25.9862 10.7455H36.1082C36.4102 10.7455 36.6551 10.9904 36.6551 11.2924C36.6551 11.5945 36.4102 11.8393 36.1082 11.8393H25.9862C25.6841 11.8393 25.4393 11.5945 25.4393 11.2924ZM25.4393 8.06414C25.4393 7.76211 25.6841 7.51727 25.9862 7.51727H31.0472C31.3492 7.51727 31.5941 7.76211 31.5941 8.06414C31.5941 8.36617 31.3492 8.61102 31.0472 8.61102H25.9862C25.6841 8.61102 25.4393 8.36617 25.4393 8.06414ZM25.4393 4.83586C25.4393 4.53383 25.6841 4.28898 25.9862 4.28898H36.1082C36.4102 4.28898 36.6551 4.53383 36.6551 4.83586C36.6551 5.13789 36.4102 5.38273 36.1082 5.38273H25.9862C25.6841 5.38273 25.4393 5.13789 25.4393 4.83586ZM25.4393 17.749C25.4393 17.447 25.6841 17.2021 25.9862 17.2021H36.1082C36.4102 17.2021 36.6551 17.447 36.6551 17.749C36.6551 18.051 36.4102 18.2959 36.1082 18.2959H25.9862C25.6841 18.2959 25.4393 18.051 25.4393 17.749ZM25.4393 20.9773C25.4393 20.6752 25.6841 20.4304 25.9862 20.4304H31.0472C31.3492 20.4304 31.5941 20.6752 31.5941 20.9773C31.5941 21.2793 31.3492 21.5241 31.0472 21.5241H25.9862C25.6841 21.5241 25.4393 21.2793 25.4393 20.9773ZM25.4393 14.5207C25.4393 14.2187 25.6841 13.9738 25.9862 13.9738H31.0472C31.3492 13.9738 31.5941 14.2187 31.5941 14.5207C31.5941 14.8227 31.3492 15.0676 31.0472 15.0676H25.9862C25.6841 15.0676 25.4393 14.8227 25.4393 14.5207Z" fill="black"/>
</g>
</svg>
