<svg width="251" height="115" viewBox="0 0 251 115" fill="none" xmlns="http://www.w3.org/2000/svg">
<g clip-path="url(#clip0_236_2249)">
<path d="M138.921 0.54579C138.737 0.283707 138.489 0.148438 138.133 0.148438H106.354C99.7355 0.148438 91.7435 5.29289 88.6589 11.8408C85.5314 18.4689 88.8557 23.4824 95.3459 23.4824H116.31C118.209 23.4824 119.031 25.0084 118.149 26.8895L117.576 28.1069C116.686 29.9837 114.423 31.5097 112.528 31.5097H80.7483C80.3932 31.5097 80.0252 31.6365 79.5888 31.8986C79.2038 32.1607 78.9257 32.4651 78.7417 32.8582L75.9651 38.7424C75.7811 39.1398 75.7683 39.4441 75.9095 39.702C76.0934 39.9641 76.3416 40.0993 76.6967 40.0993H108.476C114.791 40.0993 122.18 35.3691 125.649 29.3708C125.889 28.9481 126.116 28.5296 126.317 28.1026L126.899 26.8852C127.074 26.5217 127.228 26.1539 127.361 25.7988C129.709 19.6399 126.672 14.8885 120.374 14.8885H99.406C97.6861 14.8885 96.5609 13.6246 97.4038 11.8408C98.2723 10.0104 100.527 8.78452 102.29 8.78452H134.069C134.424 8.78452 134.792 8.65348 135.224 8.39563C135.635 8.08704 135.913 7.78269 136.076 7.43183L138.874 1.50536C139.036 1.1545 139.07 0.803647 138.929 0.54579H138.921Z" fill="black"/>
<path d="M176.998 0.172196H156.03C150.357 0.172196 143.849 3.96819 140.063 9.11688C139.349 10.0976 138.732 11.1121 138.236 12.1604L130.702 28.1222C130.368 28.8366 130.095 29.5341 129.898 30.2062V30.2147C128.289 35.6127 130.899 39.6835 136.29 40.0851C136.576 40.1062 136.876 40.1147 137.179 40.1147H158.147C158.43 40.1147 158.717 40.1062 159.003 40.0851C165.592 39.6624 172.989 34.4714 175.988 28.1222L183.522 12.1604C186.692 5.4477 183.706 0.167969 177.002 0.167969L176.998 0.172196ZM174.777 12.1647L167.243 28.1264C166.362 30.0033 164.094 31.5251 162.195 31.5251H141.231C139.331 31.5251 138.51 30.0033 139.391 28.1264L146.925 12.1647C147.807 10.292 150.053 8.81252 151.952 8.81252H172.916C174.863 8.81252 175.684 10.2498 174.777 12.1647Z" fill="black"/>
<path d="M113.376 74.3363H92.4075C92.0139 74.3363 91.6417 74.4631 91.2524 74.7252C90.8203 74.9872 90.5422 75.2916 90.3582 75.6847L87.5816 81.5689C87.3976 81.9663 87.3848 82.2706 87.573 82.5327C87.7099 82.7906 87.9623 82.9216 88.3602 82.9216H109.324C111.224 82.9216 112.045 84.4476 111.164 86.3203L110.051 88.6748C109.889 89.0256 109.615 89.33 109.204 89.6344C108.815 89.8964 108.404 90.0317 108.049 90.0317H85.5408C78.7853 90.0317 70.8276 95.396 67.7002 102.02L67.6574 102.113C64.4829 108.826 67.4692 114.101 74.1776 114.101H105.379C106.128 114.101 107.035 113.492 107.382 112.753L119.857 86.3203C123.006 79.6498 120.046 74.332 113.38 74.332L113.376 74.3363ZM104.716 99.974L102.74 104.159C102.577 104.51 102.299 104.814 101.888 105.118C101.503 105.381 101.088 105.516 100.733 105.516H78.2249C76.3253 105.516 75.5038 103.99 76.3852 102.117L76.428 102.024C77.3179 100.152 79.5811 98.6255 81.4764 98.6255H103.985C104.738 98.6255 105.067 99.2342 104.721 99.974H104.716Z" fill="black"/>
<path d="M234.304 53.4026C234.185 53.2166 233.988 53.0771 233.744 53.0475C233.71 53.0391 233.671 53.0391 233.637 53.0391H21.0085C20.9272 53.0391 20.8459 53.0433 20.7689 53.0475C19.8106 53.1278 18.9549 53.6858 18.5057 54.5355L16.0756 59.756C15.8103 60.2591 16.1783 60.8635 16.7516 60.8635H173.544L167.862 72.8898C167.652 73.3294 167.246 73.731 166.788 73.9762C166.484 74.1495 166.164 74.2467 165.86 74.2467H142.817C136.023 74.2467 128.151 79.611 125.023 86.235L117.57 102.028C114.443 108.656 117.254 114.016 124.048 114.016H155.827C156.58 114.016 157.487 113.407 157.834 112.667L176.089 73.9762L182.276 60.8635H229.136C230.283 60.8635 231.322 60.2591 231.887 59.2995V59.291C231.969 59.16 232.041 59.0163 232.097 58.8683L234.356 54.0916C234.454 53.8549 234.416 53.6013 234.296 53.4026H234.304ZM162.514 84.2271L153.153 104.065C152.802 104.809 151.895 105.418 151.147 105.418H128.108C126.208 105.418 125.387 103.892 126.268 102.019L133.721 86.2265C134.602 84.3539 136.87 82.8279 138.769 82.8279H161.808C162.557 82.8279 162.865 83.4831 162.518 84.2228L162.514 84.2271Z" fill="black"/>
<path d="M225.203 74.4716C225.019 74.2095 224.771 74.0742 224.416 74.0742H192.637C186.733 74.0742 179.738 78.1746 176.105 83.7037H176.101C175.66 84.3716 175.275 85.0564 174.942 85.7623C174.629 86.4218 174.381 87.0727 174.197 87.7026V87.711C172.516 93.3501 175.793 97.4039 181.629 97.4039H202.597C204.492 97.4039 205.318 98.9299 204.432 100.807L203.859 102.028C202.977 103.901 200.71 105.427 198.81 105.427H167.031C166.68 105.427 166.308 105.558 165.876 105.816C165.628 105.985 165.431 106.171 165.268 106.382C165.17 106.501 165.093 106.632 165.029 106.771L162.243 112.664C162.201 112.749 162.171 112.833 162.149 112.909V112.926C162.064 113.201 162.081 113.425 162.192 113.619C162.376 113.881 162.624 114.017 162.979 114.017H194.759C201.51 114.017 209.493 108.606 212.599 102.028L213.173 100.807C216.322 94.1363 213.318 88.8101 206.653 88.8101H185.689C183.969 88.8101 182.844 87.5462 183.686 85.7623C184.551 83.932 186.805 82.7061 188.572 82.7061H220.352C220.707 82.7061 221.075 82.575 221.507 82.3172C221.918 82.0128 222.196 81.7042 222.358 81.3576L225.156 75.4269C225.319 75.0761 225.353 74.7252 225.208 74.4673L225.203 74.4716Z" fill="black"/>
<path d="M76.7144 0.566406H55.7463C55.3527 0.566406 54.9805 0.693221 54.5912 0.955305C54.1591 1.21316 53.881 1.52175 53.697 1.91487L50.9204 7.79908C50.7364 8.18798 50.7236 8.50079 50.9118 8.75865C51.0487 9.02073 51.3011 9.156 51.699 9.156H72.6628C74.5624 9.156 75.3838 10.6778 74.5025 12.5546L73.3901 14.9092C73.2276 15.26 72.9537 15.5644 72.543 15.8687C72.1537 16.1308 71.743 16.2661 71.3879 16.2661H48.8796C42.1284 16.2661 34.1665 21.6304 31.039 28.2586L30.9919 28.3431C28.2025 34.2527 30.1791 39.0505 35.2574 40.1158C35.9505 40.2637 36.7078 40.3398 37.5121 40.3398H68.7225C68.9963 40.3398 69.2915 40.2595 69.5739 40.1158C70.0573 39.8706 70.5023 39.4563 70.7247 38.9829L83.2003 12.5546C86.3492 5.88418 83.3843 0.566406 76.7229 0.566406H76.7144ZM39.724 28.3431L39.7668 28.2586C40.6567 26.3817 42.9156 24.8599 44.8152 24.8599H67.3235C68.0765 24.8599 68.4059 25.4686 68.0508 26.2084L66.0785 30.3933C65.9159 30.7441 65.6378 31.0485 65.2271 31.3528C64.842 31.6149 64.427 31.7502 64.0719 31.7502H41.5637C39.6641 31.7502 38.8427 30.2242 39.724 28.3473V28.3431Z" fill="black"/>
</g>
<defs>
<clipPath id="clip0_236_2249">
<rect width="219.089" height="113.985" fill="white" transform="translate(15.6509 0.132812)"/>
</clipPath>
</defs>
</svg>
