<svg width="80" height="94" viewBox="0 0 80 94" fill="none" xmlns="http://www.w3.org/2000/svg">
<path fill-rule="evenodd" clip-rule="evenodd" d="M28.6088 21.1809C28.6088 27.2795 33.4011 32.2522 39.3157 32.2522C45.2302 32.2522 50.0225 27.2795 50.0225 21.1809V11.1729C50.0225 5.07426 45.2302 0.132812 39.3157 0.132812C33.4011 0.132812 28.6088 5.07426 28.6088 11.1729V21.1809ZM31.1869 11.1729C31.1869 6.54418 34.8266 2.79119 39.3157 2.79119C43.8047 2.79119 47.4444 6.54418 47.4444 11.1729V21.1809C47.4444 25.8096 43.8047 29.5626 39.3157 29.5626C34.8266 29.5626 31.1869 25.8096 31.1869 21.1809V11.1729ZM37.5312 11.942C37.5312 12.8204 38.3612 13.5159 39.3157 13.5159C40.3116 13.5159 41.1001 12.8204 41.1001 11.942V7.95219C41.1001 7.07371 40.3116 6.37825 39.3157 6.37825C38.3197 6.37825 37.5312 7.11032 37.5312 7.95219V11.942ZM30.9327 46.6523V56.6419H32.8362V46.6523H30.9327ZM3.31868 48.6098C2.94068 48.6098 2.63018 48.7088 2.38718 48.9068C2.15318 49.0957 2.03618 49.3612 2.03618 49.7032C2.03618 50.0452 2.12168 50.3152 2.29268 50.5132C2.47268 50.7022 2.70668 50.8507 2.99468 50.9587C3.28268 51.0577 3.59768 51.1477 3.93968 51.2287C4.28168 51.3097 4.62368 51.4087 4.96568 51.5257C5.30768 51.6426 5.62268 51.7866 5.91068 51.9576C6.19868 52.1286 6.42818 52.3806 6.59918 52.7136C6.77918 53.0376 6.86918 53.4336 6.86918 53.9016C6.86918 54.6755 6.55868 55.3415 5.93768 55.8995C5.32568 56.4575 4.50668 56.7364 3.48068 56.7364C2.46368 56.7364 1.64018 56.498 1.01018 56.021C0.380184 55.535 0.0651855 54.8555 0.0651855 53.9826H2.09018C2.16218 54.8105 2.63469 55.2245 3.50769 55.2245C3.93969 55.2245 4.28169 55.112 4.53369 54.887C4.78569 54.662 4.91168 54.365 4.91168 53.996C4.91168 53.6181 4.74518 53.3211 4.41218 53.1051C4.07918 52.8891 3.67418 52.7271 3.19718 52.6191C2.72918 52.5111 2.25669 52.3806 1.77969 52.2276C1.30269 52.0746 0.897683 51.8091 0.564683 51.4312C0.231683 51.0442 0.0651855 50.5357 0.0651855 49.9057C0.0651855 49.0507 0.375683 48.3668 0.996683 47.8538C1.61768 47.3408 2.41418 47.0843 3.38618 47.0843C4.36718 47.0843 5.15468 47.3093 5.74868 47.7593C6.34269 48.2003 6.66669 48.8753 6.72069 49.7842H4.64168C4.60568 49.4242 4.47069 49.1407 4.23669 48.9338C4.00269 48.7178 3.69668 48.6098 3.31868 48.6098ZM9.1915 55.697C8.5075 54.995 8.1655 54.0635 8.1655 52.9026C8.1655 51.7416 8.5075 50.8102 9.1915 50.1082C9.8755 49.4062 10.762 49.0552 11.851 49.0552C12.76 49.0552 13.5205 49.2757 14.1325 49.7167C14.7445 50.1577 15.154 50.7832 15.361 51.5931H13.309C13.066 50.9722 12.58 50.6617 11.851 50.6617C11.302 50.6617 10.87 50.8642 10.555 51.2692C10.249 51.6651 10.096 52.2096 10.096 52.9026C10.096 53.5956 10.249 54.1445 10.555 54.5495C10.87 54.9455 11.302 55.1435 11.851 55.1435C12.571 55.1435 13.057 54.8285 13.309 54.1985H15.361C15.145 54.9815 14.7265 55.6025 14.1055 56.0615C13.4935 56.5204 12.742 56.7499 11.851 56.7499C10.762 56.7499 9.8755 56.399 9.1915 55.697ZM18.6902 50.4862V49.1632H16.7867V56.6419H18.6902V52.8891C18.6902 52.1961 18.8342 51.7101 19.1222 51.4312C19.4102 51.1432 19.8377 50.9992 20.4047 50.9992H20.8772V49.0552C19.9232 49.0552 19.1942 49.5322 18.6902 50.4862ZM25.5526 55.1435C26.0836 55.1435 26.5381 54.95 26.9161 54.563C27.3031 54.167 27.4966 53.6136 27.4966 52.9026C27.4966 52.1826 27.3076 51.6291 26.9296 51.2422C26.5515 50.8552 26.0926 50.6617 25.5526 50.6617C25.0216 50.6617 24.5715 50.8552 24.2025 51.2422C23.8335 51.6291 23.649 52.1826 23.649 52.9026C23.649 53.6226 23.8335 54.176 24.2025 54.563C24.5715 54.95 25.0216 55.1435 25.5526 55.1435ZM22.8121 55.6835C22.0831 54.9725 21.7186 54.041 21.7186 52.8891C21.7186 51.7371 22.0875 50.8102 22.8256 50.1082C23.5636 49.4062 24.477 49.0552 25.566 49.0552C26.664 49.0552 27.5821 49.4062 28.3201 50.1082C29.0581 50.8102 29.4271 51.7371 29.4271 52.8891C29.4271 54.041 29.0535 54.9725 28.3065 55.6835C27.5685 56.3945 26.6506 56.7499 25.5526 56.7499C24.4546 56.7499 23.5411 56.3945 22.8121 55.6835ZM34.8614 56.6419V46.6523H36.7649V56.6419H34.8614ZM48.197 52.9026C48.197 53.5866 47.999 54.1265 47.603 54.5225C47.207 54.9095 46.7435 55.103 46.2125 55.103C45.6905 55.103 45.2315 54.905 44.8355 54.509C44.4395 54.113 44.2415 53.5731 44.2415 52.8891C44.2415 52.2051 44.435 51.6696 44.822 51.2827C45.218 50.8957 45.6815 50.7022 46.2125 50.7022C46.7435 50.7022 47.207 50.9002 47.603 51.2962C47.999 51.6831 48.197 52.2186 48.197 52.9026ZM42.311 52.8891C42.311 54.014 42.644 54.941 43.31 55.67C43.985 56.39 44.8265 56.7499 45.8345 56.7499C46.8425 56.7499 47.63 56.2955 48.197 55.3865V56.6419H50.087V46.6523H48.197V50.3242C47.657 49.4782 46.874 49.0552 45.848 49.0552C44.822 49.0552 43.976 49.4152 43.31 50.1352C42.644 50.8462 42.311 51.7641 42.311 52.8891ZM55.4266 55.1435C55.9576 55.1435 56.4121 54.95 56.7901 54.563C57.1771 54.167 57.3706 53.6136 57.3706 52.9026C57.3706 52.1826 57.1816 51.6291 56.8036 51.2422C56.4256 50.8552 55.9666 50.6617 55.4266 50.6617C54.8956 50.6617 54.4456 50.8552 54.0766 51.2422C53.7076 51.6291 53.5231 52.1826 53.5231 52.9026C53.5231 53.6226 53.7076 54.176 54.0766 54.563C54.4456 54.95 54.8956 55.1435 55.4266 55.1435ZM52.6861 55.6835C51.9571 54.9725 51.5926 54.041 51.5926 52.8891C51.5926 51.7371 51.9616 50.8102 52.6996 50.1082C53.4376 49.4062 54.3511 49.0552 55.4401 49.0552C56.5381 49.0552 57.4561 49.4062 58.1941 50.1082C58.9321 50.8102 59.3011 51.7371 59.3011 52.8891C59.3011 54.041 58.9276 54.9725 58.1806 55.6835C57.4426 56.3945 56.5246 56.7499 55.4266 56.7499C54.3286 56.7499 53.4151 56.3945 52.6861 55.6835ZM71.1073 49.1632H69.2847L67.9077 54.833L66.5577 49.1632H64.5598L63.1827 54.8465L61.8057 49.1632H59.8887L62.1837 56.6419H64.2087L65.5047 51.6201L66.7872 56.6419H68.8122L71.1073 49.1632ZM74.1009 49.1632V50.2837C74.5779 49.4647 75.3519 49.0552 76.4229 49.0552C77.2779 49.0552 77.9754 49.3387 78.5154 49.9057C79.0554 50.4637 79.3254 51.2422 79.3254 52.2411V56.6419H77.4354V52.5111C77.4354 51.9261 77.2869 51.4806 76.9899 51.1747C76.6929 50.8597 76.2879 50.7022 75.7749 50.7022C75.2619 50.7022 74.8524 50.8597 74.5464 51.1747C74.2494 51.4806 74.1009 51.9261 74.1009 52.5111V56.6419H72.1974V49.1632H74.1009ZM40.1433 92.7863L44.3349 88.6453C44.7421 88.2194 44.7421 87.5332 44.3109 87.1309C43.8798 86.7287 43.2091 86.7287 42.8019 87.1309L40.4786 89.4262V73.1996C40.4786 72.608 39.9756 72.1348 39.3768 72.1348C38.778 72.1348 38.299 72.608 38.299 73.1996V89.4262L35.9756 87.1309C35.5445 86.7287 34.8499 86.7287 34.4427 87.1546C34.0355 87.5805 34.0355 88.2431 34.4427 88.6453L38.6343 92.7863C39.0415 93.2122 39.7121 93.2595 40.1433 92.8573C40.1433 92.8528 40.1441 92.8493 40.1453 92.846C40.1463 92.8435 40.1474 92.8412 40.1486 92.8389C40.1539 92.8283 40.1592 92.8178 40.1433 92.7863Z" fill="black" fill-opacity="0.5"/>
</svg>
